<?xml version="1.0" encoding="UTF-8"?>
<svg id="a" xmlns="http://www.w3.org/2000/svg" viewBox="0 0 595.28 357.92">
    <defs>
        <style>.b{fill:#f8cde2;}.c{fill:#fff;}.d{fill:#ffeb6c;}.e{fill:#7bcdf4;}.f{fill:#d4ebf9;}.g{fill:#0c1220;}.h{fill:#3eaed3;}.i{fill:#3e4a59;}.j{fill:#5bc2d8;}</style>
    </defs>
    <g>
        <rect class="g" width="595.28" height="357.92" />
        <path class="g" d="M461.47,229.93c-32.39,20.04,56.93,10.61,90.3,21.22,33.37,10.61,69.69,55.4,0,22.39-69.69-33.01-186.5,2.36-204.17-9.43-17.67-11.79,72.86-47.75,113.86-61.3,39.26-12.96,32.39,7.07,0,27.11ZM21.98,104.16c-8.63-5.18-3.15,61.78,43.05,85.11,30.09,15.19,17.85,47.91-11.55,75.65-29.4,27.74-48.83,73.28-9.45,29.63,61.43-68.09,169.05-75.65,167.48-87-1.57-11.35-63.52,2.52-66.67-19.54-3.15-22.07,135.33-53.56,134.4-59.89-1.57-10.72-102.39,20.97-140.7,27.74-35.7,6.3-64.58,9.46-92.4-13.87-13.61-11.41-19.95-35.3-24.15-37.83ZM553.28,0H175.7C99.59,17.17,10.99,49.73,45.08,99.75c56.7,83.22,263.9-54.64,301.7-.84,37.8,53.8-112,55.48-114.8,77.33-3.85,30.01,51.8-.84,69.3,21.01,17.5,21.86-240.8,51.28-275.1,147.94-1.66,4.69-2.79,8.54-3.43,12.71H581.49c-8.55-28.7-93.31-71.6-177.31-58.11-188.3,30.26-187.23-40.79-105.7-79.86,142.1-68.09,248.5-90.28,155.4-119.7-71.32-22.54-55.3-65.94,99.4-100.25Z" />
    </g>
    <g>
        <path class="f" d="M12.06,43.91c0,1.56,1.26,2.83,2.82,2.83s2.82-1.27,2.82-2.83-1.26-2.83-2.82-2.83-2.82,1.27-2.82,2.83Z" />
        <path class="f" d="M9.68,132.23c0,1.56,1.26,2.83,2.82,2.83s2.82-1.27,2.82-2.83-1.26-2.83-2.82-2.83-2.82,1.27-2.82,2.83Z" />
        <path class="f" d="M157.58,230.88c0,.88,.71,1.59,1.59,1.59s1.59-.71,1.59-1.59-.71-1.59-1.59-1.59-1.59,.71-1.59,1.59Z" />
        <path class="e" d="M250.04,295.14c0,.88,.71,1.59,1.59,1.59s1.59-.71,1.59-1.59-.71-1.59-1.59-1.59-1.59,.71-1.59,1.59Z" />
        <path class="f" d="M48.4,326.71c0,.88,.71,1.59,1.59,1.59s1.59-.71,1.59-1.59-.71-1.59-1.59-1.59-1.59,.71-1.59,1.59Z" />
        <path class="d" d="M83.09,105.15c0,.88,.71,1.59,1.59,1.59s1.59-.71,1.59-1.59-.71-1.59-1.59-1.59-1.59,.71-1.59,1.59Z" />
        <path class="f" d="M362.34,108.37c0,.88,.71,1.59,1.59,1.59s1.59-.71,1.59-1.59-.71-1.59-1.59-1.59-1.59,.71-1.59,1.59Z" />
        <path class="f" d="M443.84,134.31c0,.6,.49,1.09,1.09,1.09s1.09-.49,1.09-1.09-.49-1.09-1.09-1.09-1.09,.49-1.09,1.09Z" />
        <path class="c" d="M483.52,111.35c0,.91,.73,1.64,1.64,1.64s1.63-.73,1.63-1.64-.73-1.64-1.63-1.64-1.64,.73-1.64,1.64Z" />
        <path class="f" d="M454,130.06c0,.91,.73,1.64,1.64,1.64s1.64-.73,1.64-1.64-.73-1.64-1.64-1.64-1.64,.73-1.64,1.64Z" />
        <path class="f" d="M515.94,115.7c0,.91,.73,1.64,1.64,1.64s1.64-.73,1.64-1.64-.73-1.64-1.64-1.64-1.64,.73-1.64,1.64Z" />
        <path class="f" d="M531.48,18.38c0,.91,.73,1.64,1.64,1.64s1.64-.73,1.64-1.64-.73-1.64-1.64-1.64-1.64,.73-1.64,1.64Z" />
        <path class="d" d="M111.48,182.11c0,1.36,1.1,2.46,2.46,2.46s2.45-1.1,2.45-2.46-1.1-2.46-2.45-2.46-2.46,1.1-2.46,2.46Z" />
        <path class="f" d="M353.13,208.92c0,.91,.73,1.64,1.64,1.64s1.64-.73,1.64-1.64-.73-1.64-1.64-1.64-1.64,.73-1.64,1.64Z" />
        <path class="f" d="M408.98,231.75c0,.91,.73,1.64,1.64,1.64s1.64-.73,1.64-1.64-.73-1.64-1.64-1.64-1.64,.73-1.64,1.64Z" />
        <path class="f" d="M169.96,154.54c0,.91,.73,1.64,1.64,1.64s1.64-.73,1.64-1.64-.73-1.64-1.64-1.64-1.64,.73-1.64,1.64Z" />
        <path class="f" d="M162.81,326.03c0,.91,.73,1.64,1.64,1.64s1.63-.73,1.63-1.64-.73-1.64-1.63-1.64-1.64,.73-1.64,1.64Z" />
        <path class="f" d="M244.74,218.07c0,.91,.73,1.64,1.64,1.64s1.63-.73,1.63-1.64-.73-1.64-1.63-1.64-1.64,.73-1.64,1.64Z" />
        <path class="d" d="M213.07,243.64c0,.91,.73,1.64,1.64,1.64s1.63-.73,1.63-1.64-.73-1.64-1.63-1.64-1.64,.73-1.64,1.64Z" />
        <path class="f" d="M193.58,265.03c0,.91,.73,1.64,1.64,1.64s1.64-.73,1.64-1.64-.73-1.64-1.64-1.64-1.64,.73-1.64,1.64Z" />
        <path class="d" d="M189.36,281.7c0,.91,.73,1.64,1.64,1.64s1.64-.73,1.64-1.64-.73-1.64-1.64-1.64-1.64,.73-1.64,1.64Z" />
        <path class="c" d="M182.49,316.98c0,.91,.73,1.64,1.64,1.64s1.63-.73,1.63-1.64-.73-1.64-1.63-1.64-1.64,.73-1.64,1.64Z" />
        <path class="f" d="M275.59,273.14c0,.91,.73,1.64,1.64,1.64s1.64-.73,1.64-1.64-.73-1.64-1.64-1.64-1.64,.73-1.64,1.64Z" />
        <path class="f" d="M330.23,305.96c0,.91,.73,1.64,1.64,1.64s1.64-.73,1.64-1.64-.73-1.64-1.64-1.64-1.64,.73-1.64,1.64Z" />
        <path class="f" d="M541.46,350.32c0,.91,.73,1.64,1.64,1.64s1.63-.73,1.63-1.64-.73-1.64-1.63-1.64-1.64,.73-1.64,1.64Z" />
        <path class="f" d="M464.74,90.63c0,.91,.73,1.64,1.64,1.64s1.63-.73,1.63-1.64-.73-1.64-1.63-1.64-1.64,.73-1.64,1.64Z" />
        <path class="f" d="M214.97,104.79c0,.91,.73,1.64,1.64,1.64s1.63-.73,1.63-1.64-.73-1.64-1.63-1.64-1.64,.73-1.64,1.64Z" />
        <path class="f" d="M451.5,72.88c0,.91,.73,1.64,1.64,1.64s1.64-.73,1.64-1.64-.73-1.64-1.64-1.64-1.64,.73-1.64,1.64Z" />
        <path class="f" d="M451.85,24.77c0,.91,.73,1.64,1.64,1.64s1.63-.73,1.63-1.64-.73-1.64-1.63-1.64-1.64,.73-1.64,1.64Z" />
        <path class="f" d="M409.64,37.68c0,.91,.73,1.64,1.64,1.64s1.63-.73,1.63-1.64-.73-1.64-1.63-1.64-1.64,.73-1.64,1.64Z" />
        <path class="f" d="M312.88,66.85c0,.91,.73,1.64,1.64,1.64s1.64-.73,1.64-1.64-.73-1.64-1.64-1.64-1.64,.73-1.64,1.64Z" />
        <path class="e" d="M268.77,40.52c0,.91,.73,1.64,1.64,1.64s1.63-.73,1.63-1.64-.73-1.64-1.63-1.64-1.64,.73-1.64,1.64Z" />
        <path class="f" d="M204.49,85.68c0,.91,.73,1.64,1.64,1.64s1.63-.73,1.63-1.64-.73-1.64-1.63-1.64-1.64,.73-1.64,1.64Z" />
        <path class="f" d="M91.98,24.78c0,.91,.73,1.64,1.64,1.64s1.64-.73,1.64-1.64-.73-1.64-1.64-1.64-1.64,.73-1.64,1.64Z" />
        <path class="f" d="M332.11,66.5c0,.6,.49,1.09,1.09,1.09s1.09-.49,1.09-1.09-.49-1.09-1.09-1.09-1.09,.49-1.09,1.09Z" />
        <path class="f" d="M97.18,86.13c0,.6,.49,1.09,1.09,1.09s1.09-.49,1.09-1.09-.49-1.09-1.09-1.09-1.09,.49-1.09,1.09Z" />
        <path class="f" d="M112.87,92.44c0,.6,.49,1.09,1.09,1.09s1.09-.49,1.09-1.09-.49-1.09-1.09-1.09-1.09,.49-1.09,1.09Z" />
        <path class="c" d="M83.13,87.48c0,.6,.49,1.09,1.09,1.09s1.09-.49,1.09-1.09-.49-1.09-1.09-1.09-1.09,.49-1.09,1.09Z" />
        <path class="f" d="M327.91,85.59c0,.6,.49,1.09,1.09,1.09s1.09-.49,1.09-1.09-.49-1.09-1.09-1.09-1.09,.49-1.09,1.09Z" />
        <path class="f" d="M343.61,91.91c0,.6,.49,1.09,1.09,1.09s1.09-.49,1.09-1.09-.49-1.09-1.09-1.09-1.09,.49-1.09,1.09Z" />
        <path class="f" d="M313.86,86.94c0,.6,.49,1.09,1.09,1.09s1.09-.49,1.09-1.09-.49-1.09-1.09-1.09-1.09,.49-1.09,1.09Z" />
        <path class="f" d="M356.72,127.91c0,.6,.49,1.09,1.09,1.09s1.09-.49,1.09-1.09-.49-1.09-1.09-1.09-1.09,.49-1.09,1.09Z" />
        <path class="f" d="M372.42,134.22c0,.6,.49,1.09,1.09,1.09s1.09-.49,1.09-1.09-.49-1.09-1.09-1.09-1.09,.49-1.09,1.09Z" />
        <path class="f" d="M400.82,206.31c0,.6,.49,1.09,1.09,1.09s1.09-.49,1.09-1.09-.49-1.09-1.09-1.09-1.09,.49-1.09,1.09Z" />
        <path class="f" d="M320.53,165.57c0,.6,.49,1.09,1.09,1.09s1.09-.49,1.09-1.09-.49-1.09-1.09-1.09-1.09,.49-1.09,1.09Z" />
        <path class="f" d="M246.35,194.75c0,.6,.49,1.09,1.09,1.09s1.09-.49,1.09-1.09-.49-1.09-1.09-1.09-1.09,.49-1.09,1.09Z" />
        <path class="f" d="M262.05,201.06c0,.6,.49,1.09,1.09,1.09s1.09-.49,1.09-1.09-.49-1.09-1.09-1.09-1.09,.49-1.09,1.09Z" />
        <path class="f" d="M232.3,196.1c0,.6,.49,1.09,1.09,1.09s1.09-.49,1.09-1.09-.49-1.09-1.09-1.09-1.09,.49-1.09,1.09Z" />
        <path class="f" d="M325.9,330.74c0,.6,.49,1.09,1.09,1.09s1.09-.49,1.09-1.09-.49-1.09-1.09-1.09-1.09,.49-1.09,1.09Z" />
        <path class="f" d="M285.95,336.19c0,.6,.49,1.09,1.09,1.09s1.09-.49,1.09-1.09-.49-1.09-1.09-1.09-1.09,.49-1.09,1.09Z" />
        <path class="f" d="M198.76,202.65c0,.6,.49,1.09,1.09,1.09s1.09-.49,1.09-1.09-.49-1.09-1.09-1.09-1.09,.49-1.09,1.09Z" />
        <path class="f" d="M214.45,208.96c0,.6,.49,1.09,1.09,1.09s1.09-.49,1.09-1.09-.49-1.09-1.09-1.09-1.09,.49-1.09,1.09Z" />
        <path class="f" d="M184.71,204c0,.6,.49,1.09,1.09,1.09s1.09-.49,1.09-1.09-.49-1.09-1.09-1.09-1.09,.49-1.09,1.09Z" />
        <path class="f" d="M316.02,147.04c0,.6,.49,1.09,1.09,1.09s1.09-.49,1.09-1.09-.49-1.09-1.09-1.09-1.09,.49-1.09,1.09Z" />
        <path class="f" d="M302.53,231.03c0,.6,.49,1.09,1.09,1.09s1.09-.49,1.09-1.09-.49-1.09-1.09-1.09-1.09,.49-1.09,1.09Z" />
        <path class="f" d="M250.48,48.77c0,.6,.49,1.09,1.09,1.09s1.09-.49,1.09-1.09-.49-1.09-1.09-1.09-1.09,.49-1.09,1.09Z" />
        <path class="d" d="M97.37,57.47c0,.6,.49,1.09,1.09,1.09s1.09-.49,1.09-1.09-.49-1.09-1.09-1.09-1.09,.49-1.09,1.09Z" />
        <path class="d" d="M72.3,68.22c0,.6,.49,1.09,1.09,1.09s1.09-.49,1.09-1.09-.49-1.09-1.09-1.09-1.09,.49-1.09,1.09Z" />
        <path class="d" d="M425.38,35.24c0,.6,.49,1.09,1.09,1.09s1.09-.49,1.09-1.09-.49-1.09-1.09-1.09-1.09,.49-1.09,1.09Z" />
        <path class="f" d="M294.64,9.3c0,.6,.49,1.09,1.09,1.09s1.09-.49,1.09-1.09-.49-1.09-1.09-1.09-1.09,.49-1.09,1.09Z" />
        <path class="f" d="M195.91,6.24c0,.6,.49,1.09,1.09,1.09s1.09-.49,1.09-1.09-.49-1.09-1.09-1.09-1.09,.49-1.09,1.09Z" />
        <path class="f" d="M75.88,261.8c0,.6,.49,1.09,1.09,1.09s1.09-.49,1.09-1.09-.49-1.09-1.09-1.09-1.09,.49-1.09,1.09Z" />
        <path class="f" d="M517.33,347.01c0,.6,.49,1.09,1.09,1.09s1.09-.49,1.09-1.09-.49-1.09-1.09-1.09-1.09,.49-1.09,1.09Z" />
        <path class="f" d="M50.55,12.24c0,.6,.49,1.09,1.09,1.09s1.09-.49,1.09-1.09-.49-1.09-1.09-1.09-1.09,.49-1.09,1.09Z" />
        <path class="f" d="M26.32,98.4c0,.6,.49,1.09,1.09,1.09s1.09-.49,1.09-1.09-.49-1.09-1.09-1.09-1.09,.49-1.09,1.09Z" />
        <path class="f" d="M451.51,56.46c0,.6,.49,1.09,1.09,1.09s1.09-.49,1.09-1.09-.49-1.09-1.09-1.09-1.09,.49-1.09,1.09Z" />
        <path class="f" d="M373.08,103.18c0,.35,.29,.64,.64,.64s.64-.29,.64-.64-.29-.64-.64-.64-.64,.29-.64,.64Z" />
        <path class="f" d="M376.3,119.67c0,.35,.29,.64,.64,.64s.64-.29,.64-.64-.29-.64-.64-.64-.64,.29-.64,.64Z" />
        <path class="f" d="M477.54,129.36c0,.35,.29,.64,.64,.64s.64-.29,.64-.64-.29-.64-.64-.64-.64,.29-.64,.64Z" />
        <path class="f" d="M470.38,101.67c0,.35,.29,.64,.64,.64s.64-.29,.64-.64-.29-.64-.64-.64-.64,.29-.64,.64Z" />
        <path class="f" d="M464.83,129.16c0,.35,.29,.64,.64,.64s.64-.29,.64-.64-.29-.64-.64-.64-.64,.29-.64,.64Z" />
        <path class="f" d="M418.51,48.88c0,.35,.29,.64,.64,.64s.64-.29,.64-.64-.29-.64-.64-.64-.64,.29-.64,.64Z" />
        <path class="f" d="M411.36,21.19c0,.35,.29,.64,.64,.64s.64-.29,.64-.64-.29-.64-.64-.64-.64,.29-.64,.64Z" />
        <path class="f" d="M280.25,49.69c0,.35,.29,.64,.64,.64s.64-.29,.64-.64-.29-.64-.64-.64-.64,.29-.64,.64Z" />
        <path class="f" d="M240.36,61.05c0,.35,.29,.64,.64,.64s.64-.29,.64-.64-.29-.64-.64-.64-.64,.29-.64,.64Z" />
        <path class="f" d="M334.09,151.59c0,.35,.29,.64,.64,.64s.64-.29,.64-.64-.29-.64-.64-.64-.64,.29-.64,.64Z" />
        <path class="f" d="M321.39,151.39c0,.35,.29,.64,.64,.64s.64-.29,.64-.64-.29-.64-.64-.64-.64,.29-.64,.64Z" />
        <path class="f" d="M267.02,306.09c0,.35,.29,.64,.64,.64s.64-.29,.64-.64-.29-.64-.64-.64-.64,.29-.64,.64Z" />
        <path class="f" d="M259.86,278.4c0,.35,.29,.64,.64,.64s.64-.29,.64-.64-.29-.64-.64-.64-.64,.29-.64,.64Z" />
        <path class="f" d="M254.32,305.89c0,.35,.29,.64,.64,.64s.64-.29,.64-.64-.29-.64-.64-.64-.64,.29-.64,.64Z" />
        <path class="f" d="M371.12,316.85c0,.35,.29,.64,.64,.64s.64-.29,.64-.64-.29-.64-.64-.64-.64,.29-.64,.64Z" />
        <path class="f" d="M363.96,289.16c0,.35,.29,.64,.64,.64s.64-.29,.64-.64-.29-.64-.64-.64-.64,.29-.64,.64Z" />
        <path class="f" d="M324.07,300.52c0,.35,.29,.64,.64,.64s.64-.29,.64-.64-.29-.64-.64-.64-.64,.29-.64,.64Z" />
        <path class="f" d="M344.36,324.72c0,.35,.29,.64,.64,.64s.64-.29,.64-.64-.29-.64-.64-.64-.64,.29-.64,.64Z" />
        <path class="f" d="M404.56,294.61c0,.35,.29,.64,.64,.64s.64-.29,.64-.64-.29-.64-.64-.64-.64,.29-.64,.64Z" />
        <path class="f" d="M189.75,98c0,.35,.29,.64,.64,.64s.64-.29,.64-.64-.29-.64-.64-.64-.64,.29-.64,.64Z" />
        <path class="f" d="M182.59,70.31c0,.35,.29,.64,.64,.64s.64-.29,.64-.64-.29-.64-.64-.64-.64,.29-.64,.64Z" />
        <path class="f" d="M142.7,81.67c0,.35,.29,.64,.64,.64s.64-.29,.64-.64-.29-.64-.64-.64-.64,.29-.64,.64Z" />
        <path class="f" d="M85.65,41c0,.35,.29,.64,.64,.64s.64-.29,.64-.64-.29-.64-.64-.64-.64,.29-.64,.64Z" />
        <path class="f" d="M78.49,13.31c0,.35,.29,.64,.64,.64s.64-.29,.64-.64-.29-.64-.64-.64-.64,.29-.64,.64Z" />
        <path class="f" d="M38.61,24.67c0,.35,.29,.64,.64,.64s.64-.29,.64-.64-.29-.64-.64-.64-.64,.29-.64,.64Z" />
        <path class="f" d="M72.95,40.8c0,.35,.29,.64,.64,.64s.64-.29,.64-.64-.29-.64-.64-.64-.64,.29-.64,.64Z" />
        <path class="f" d="M337.56,239.04c0,.35,.29,.64,.64,.64s.64-.29,.64-.64-.29-.64-.64-.64-.64,.29-.64,.64Z" />
        <path class="f" d="M208.77,143.21c0,.35,.29,.64,.64,.64s.64-.29,.64-.64-.29-.64-.64-.64-.64,.29-.64,.64Z" />
        <path class="f" d="M265.58,227.93c0,.35,.29,.64,.64,.64s.64-.29,.64-.64-.29-.64-.64-.64-.64,.29-.64,.64Z" />
        <path class="f" d="M528.07,5.07c0,.6,.49,1.09,1.09,1.09s1.09-.49,1.09-1.09-.49-1.09-1.09-1.09-1.09,.49-1.09,1.09Z" />
        <path class="f" d="M307.8,57.04c0,.6,.49,1.09,1.09,1.09s1.09-.49,1.09-1.09-.49-1.09-1.09-1.09-1.09,.49-1.09,1.09Z" />
        <path class="f" d="M241.12,78.53c0,.6,.49,1.09,1.09,1.09s1.09-.49,1.09-1.09-.49-1.09-1.09-1.09-1.09,.49-1.09,1.09Z" />
        <path class="f" d="M234.51,119.93c0,.6,.49,1.09,1.09,1.09s1.09-.49,1.09-1.09-.49-1.09-1.09-1.09-1.09,.49-1.09,1.09Z" />
        <path class="f" d="M319.29,98.44c0,.6,.49,1.09,1.09,1.09s1.09-.49,1.09-1.09-.49-1.09-1.09-1.09-1.09,.49-1.09,1.09Z" />
        <path class="f" d="M430.74,26.28c0,.6,.49,1.09,1.09,1.09s1.09-.49,1.09-1.09-.49-1.09-1.09-1.09-1.09,.49-1.09,1.09Z" />
        <path class="f" d="M435.23,43.29c0,.6,.49,1.09,1.09,1.09s1.09-.49,1.09-1.09-.49-1.09-1.09-1.09-1.09,.49-1.09,1.09Z" />
        <path class="f" d="M350.8,5.29c0,.6,.49,1.09,1.09,1.09s1.09-.49,1.09-1.09-.49-1.09-1.09-1.09-1.09,.49-1.09,1.09Z" />
        <path class="f" d="M109.7,11.03c0,.6,.49,1.09,1.09,1.09s1.09-.49,1.09-1.09-.49-1.09-1.09-1.09-1.09,.49-1.09,1.09Z" />
        <path class="f" d="M354.58,96.75c0,.6,.49,1.09,1.09,1.09s1.09-.49,1.09-1.09-.49-1.09-1.09-1.09-1.09,.49-1.09,1.09Z" />
        <path class="f" d="M497.23,127.66c0,.6,.49,1.09,1.09,1.09s1.09-.49,1.09-1.09-.49-1.09-1.09-1.09-1.09,.49-1.09,1.09Z" />
        <path class="f" d="M464.73,112.75c0,.6,.49,1.09,1.09,1.09s1.09-.49,1.09-1.09-.49-1.09-1.09-1.09-1.09,.49-1.09,1.09Z" />
        <path class="d" d="M527.86,145.31c0,.6,.49,1.09,1.09,1.09s1.09-.49,1.09-1.09-.49-1.09-1.09-1.09-1.09,.49-1.09,1.09Z" />
        <path class="f" d="M565.28,220.22c0,.6,.49,1.09,1.09,1.09s1.09-.49,1.09-1.09-.49-1.09-1.09-1.09-1.09,.49-1.09,1.09Z" />
        <path class="f" d="M572.07,253.92c0,.6,.49,1.09,1.09,1.09s1.09-.49,1.09-1.09-.49-1.09-1.09-1.09-1.09,.49-1.09,1.09Z" />
        <path class="f" d="M561.34,237.78c0,.6,.49,1.09,1.09,1.09s1.09-.49,1.09-1.09-.49-1.09-1.09-1.09-1.09,.49-1.09,1.09Z" />
        <path class="f" d="M578.68,271.48c0,.6,.49,1.09,1.09,1.09s1.09-.49,1.09-1.09-.49-1.09-1.09-1.09-1.09,.49-1.09,1.09Z" />
        <path class="f" d="M509.47,182.94c0,.6,.49,1.09,1.09,1.09s1.09-.49,1.09-1.09-.49-1.09-1.09-1.09-1.09,.49-1.09,1.09Z" />
        <path class="f" d="M547.33,59.59c0,.6,.49,1.09,1.09,1.09s1.09-.49,1.09-1.09-.49-1.09-1.09-1.09-1.09,.49-1.09,1.09Z" />
        <path class="f" d="M548.29,178.94c0,.6,.49,1.09,1.09,1.09s1.09-.49,1.09-1.09-.49-1.09-1.09-1.09-1.09,.49-1.09,1.09Z" />
        <path class="f" d="M528.24,194.41c0,.6,.49,1.09,1.09,1.09s1.09-.49,1.09-1.09-.49-1.09-1.09-1.09-1.09,.49-1.09,1.09Z" />
        <path class="f" d="M520.56,227.75c0,.6,.49,1.09,1.09,1.09s1.09-.49,1.09-1.09-.49-1.09-1.09-1.09-1.09,.49-1.09,1.09Z" />
        <path class="f" d="M580.94,347.65c0,.6,.49,1.09,1.09,1.09s1.09-.49,1.09-1.09-.49-1.09-1.09-1.09-1.09,.49-1.09,1.09Z" />
        <path class="f" d="M329.28,223.18c0,.6,.49,1.09,1.09,1.09s1.09-.49,1.09-1.09-.49-1.09-1.09-1.09-1.09,.49-1.09,1.09Z" />
        <path class="c" d="M276.14,249.98c0,.6,.49,1.09,1.09,1.09s1.09-.49,1.09-1.09-.49-1.09-1.09-1.09-1.09,.49-1.09,1.09Z" />
        <path class="e" d="M255.99,318.95c0,.6,.49,1.09,1.09,1.09s1.09-.49,1.09-1.09-.49-1.1-1.09-1.1-1.09,.49-1.09,1.1Z" />
        <path class="f" d="M340.77,264.57c0,.6,.49,1.09,1.09,1.09s1.09-.49,1.09-1.09-.49-1.1-1.09-1.1-1.09,.49-1.09,1.1Z" />
        <path class="f" d="M415.2,256.29c0,.6,.49,1.09,1.09,1.09s1.09-.49,1.09-1.09-.49-1.09-1.09-1.09-1.09,.49-1.09,1.09Z" />
        <path class="f" d="M381.01,325.57c0,.6,.49,1.09,1.09,1.09s1.09-.49,1.09-1.09-.49-1.09-1.09-1.09-1.09,.49-1.09,1.09Z" />
        <path class="f" d="M348.52,277.78c0,.6,.49,1.09,1.09,1.09s1.09-.49,1.09-1.09-.49-1.1-1.09-1.1-1.09,.49-1.09,1.1Z" />
        <path class="f" d="M432.17,298.72c0,.6,.49,1.09,1.09,1.09s1.09-.49,1.09-1.09-.49-1.1-1.09-1.1-1.09,.49-1.09,1.1Z" />
        <path class="f" d="M341.91,352.07c0,.6,.49,1.09,1.09,1.09s1.09-.49,1.09-1.09-.49-1.1-1.09-1.1-1.09,.49-1.09,1.1Z" />
        <path class="f" d="M426.69,330.58c0,.6,.49,1.09,1.09,1.09s1.09-.49,1.09-1.09-.49-1.1-1.09-1.1-1.09,.49-1.09,1.1Z" />
        <path class="f" d="M468.07,263.47c0,.6,.49,1.09,1.09,1.09s1.09-.49,1.09-1.09-.49-1.09-1.09-1.09-1.09,.49-1.09,1.09Z" />
        <path class="f" d="M467.49,317.85c0,.6,.49,1.09,1.09,1.09s1.09-.49,1.09-1.09-.49-1.1-1.09-1.1-1.09,.49-1.09,1.1Z" />
        <path class="f" d="M460.27,350.87c0,.6,.49,1.09,1.09,1.09s1.09-.49,1.09-1.09-.49-1.1-1.09-1.1-1.09,.49-1.09,1.1Z" />
        <path class="f" d="M545.66,337.75c0,.6,.49,1.09,1.09,1.09s1.09-.49,1.09-1.09-.49-1.1-1.09-1.1-1.09,.49-1.09,1.1Z" />
        <path class="f" d="M184.98,224.52c0,.6,.49,1.09,1.09,1.09s1.09-.49,1.09-1.09-.49-1.09-1.09-1.09-1.09,.49-1.09,1.09Z" />
        <path class="f" d="M140.88,262.33c0,.6,.49,1.09,1.09,1.09s1.09-.49,1.09-1.09-.49-1.1-1.09-1.1-1.09,.49-1.09,1.1Z" />
        <path class="f" d="M108.38,247.43c0,.6,.49,1.09,1.09,1.09s1.09-.49,1.09-1.09-.49-1.09-1.09-1.09-1.09,.49-1.09,1.09Z" />
        <path class="f" d="M163.72,267.54c0,.6,.49,1.09,1.09,1.09s1.09-.49,1.09-1.09-.49-1.09-1.09-1.09-1.09,.49-1.09,1.09Z" />
        <path class="f" d="M59.95,136.52c0,.6,.49,1.09,1.09,1.09s1.09-.49,1.09-1.09-.49-1.09-1.09-1.09-1.09,.49-1.09,1.09Z" />
        <path class="c" d="M158.5,87.37c0,.6,.49,1.09,1.09,1.09s1.09-.49,1.09-1.09-.49-1.09-1.09-1.09-1.09,.49-1.09,1.09Z" />
        <path class="f" d="M542.71,229.9c0,.6,.49,1.09,1.09,1.09s1.09-.49,1.09-1.09-.49-1.09-1.09-1.09-1.09,.49-1.09,1.09Z" />
        <path class="f" d="M156.2,62.47c0,.6,.49,1.09,1.09,1.09s1.09-.49,1.09-1.09-.49-1.09-1.09-1.09-1.09,.49-1.09,1.09Z" />
        <path class="f" d="M86.98,7.48c0,.6,.49,1.09,1.09,1.09s1.09-.49,1.09-1.09-.49-1.09-1.09-1.09-1.09,.49-1.09,1.09Z" />
        <path class="f" d="M126.01,72.46c0,.6,.49,1.09,1.09,1.09s1.09-.49,1.09-1.09-.49-1.09-1.09-1.09-1.09,.49-1.09,1.09Z" />
        <path class="f" d="M204.18,92.37c0,.6,.49,1.09,1.09,1.09s1.09-.49,1.09-1.09-.49-1.09-1.09-1.09-1.09,.49-1.09,1.09Z" />
        <path class="f" d="M421.77,217.07c0,.6,.49,1.09,1.09,1.09s1.09-.49,1.09-1.09-.49-1.09-1.09-1.09-1.09,.49-1.09,1.09Z" />
        <path class="f" d="M57.99,305.89c0,.6,.49,1.09,1.09,1.09s1.09-.49,1.09-1.09-.49-1.1-1.09-1.1-1.09,.49-1.09,1.1Z" />
        <path class="f" d="M250.48,338.86c0,.6,.49,1.09,1.09,1.09s1.09-.49,1.09-1.09-.49-1.09-1.09-1.09-1.09,.49-1.09,1.09Z" />
        <path class="d" d="M258.16,228.11c0,.6,.49,1.09,1.09,1.09s1.09-.49,1.09-1.09-.49-1.1-1.09-1.1-1.09,.49-1.09,1.1Z" />
        <path class="f" d="M334.71,201.06c0,.6,.49,1.09,1.09,1.09s1.09-.49,1.09-1.09-.49-1.09-1.09-1.09-1.09,.49-1.09,1.09Z" />
        <path class="f" d="M76.47,317.88c0,.6,.49,1.09,1.09,1.09s1.09-.49,1.09-1.09-.49-1.09-1.09-1.09-1.09,.49-1.09,1.09Z" />
        <path class="f" d="M81.43,352.1c0,.6,.49,1.09,1.09,1.09s1.09-.49,1.09-1.09-.49-1.1-1.09-1.1-1.09,.49-1.09,1.1Z" />
        <path class="f" d="M177.49,181.34c0,.6,.49,1.09,1.09,1.09s1.09-.49,1.09-1.09-.49-1.1-1.09-1.1-1.09,.49-1.09,1.1Z" />
        <path class="f" d="M64.87,101.23c0,.6,.49,1.09,1.09,1.09s1.09-.49,1.09-1.09-.49-1.09-1.09-1.09-1.09,.49-1.09,1.09Z" />
        <path class="f" d="M77.5,57.6c0,.6,.49,1.09,1.09,1.09s1.09-.49,1.09-1.09-.49-1.1-1.09-1.1-1.09,.49-1.09,1.1Z" />
        <path class="f" d="M88.32,171.2c0,.6,.49,1.09,1.09,1.09s1.09-.49,1.09-1.09-.49-1.1-1.09-1.1-1.09,.49-1.09,1.1Z" />
        <path class="f" d="M135.28,207.12c0,.6,.49,1.09,1.09,1.09s1.09-.49,1.09-1.09-.49-1.1-1.09-1.1-1.09,.49-1.09,1.1Z" />
        <path class="f" d="M134.9,165.82c0,.6,.49,1.09,1.09,1.09s1.09-.49,1.09-1.09-.49-1.1-1.09-1.1-1.09,.49-1.09,1.1Z" />
        <path class="f" d="M220.22,159.1c0,.6,.49,1.09,1.09,1.09s1.09-.49,1.09-1.09-.49-1.1-1.09-1.1-1.09,.49-1.09,1.1Z" />
        <path class="f" d="M472.79,223.25c0,.6,.49,1.09,1.09,1.09s1.09-.49,1.09-1.09-.49-1.1-1.09-1.1-1.09,.49-1.09,1.1Z" />
        <path class="f" d="M551.83,280.62c0,.6,.49,1.09,1.09,1.09s1.09-.49,1.09-1.09-.49-1.1-1.09-1.1-1.09,.49-1.09,1.1Z" />
        <path class="f" d="M387.47,254.98c0,.6,.49,1.09,1.09,1.09s1.09-.49,1.09-1.09-.49-1.1-1.09-1.1-1.09,.49-1.09,1.1Z" />
        <path class="d" d="M420.92,311.82c0,.6,.49,1.09,1.09,1.09s1.09-.49,1.09-1.09-.49-1.1-1.09-1.1-1.09,.49-1.09,1.1Z" />
        <path class="f" d="M551.17,150.87c0,.88,.71,1.59,1.59,1.59s1.59-.71,1.59-1.59-.71-1.59-1.59-1.59-1.59,.71-1.59,1.59Z" />
        <path class="f" d="M126.61,253.53c0,.88,.71,1.59,1.59,1.59s1.59-.71,1.59-1.59-.71-1.59-1.59-1.59-1.59,.71-1.59,1.59Z" />
        <path class="e" d="M31.33,347.13c0,.88,.71,1.59,1.59,1.59s1.59-.71,1.59-1.59-.71-1.59-1.59-1.59-1.59,.71-1.59,1.59Z" />
        <path class="c" d="M428.4,347.25c0,.88,.71,1.59,1.59,1.59s1.59-.71,1.59-1.59-.71-1.59-1.59-1.59-1.59,.71-1.59,1.59Z" />
        <path class="f" d="M316.09,243.16c0,1.56,1.26,2.83,2.82,2.83s2.82-1.27,2.82-2.83-1.26-2.83-2.82-2.83-2.82,1.27-2.82,2.83Z" />
        <path class="b" d="M196.12,70.73c0,.68,.55,1.24,1.24,1.24s1.23-.55,1.23-1.24-.55-1.24-1.23-1.24-1.24,.55-1.24,1.24Z" />
        <path class="b" d="M473.72,118.45c0,.68,.55,1.24,1.23,1.24s1.24-.55,1.24-1.24-.55-1.24-1.24-1.24-1.23,.55-1.23,1.24Z" />
        <path class="b" d="M488.84,243.31c0,1.81,1.47,3.29,3.28,3.29s3.28-1.47,3.28-3.29-1.47-3.29-3.28-3.29-3.28,1.47-3.28,3.29Z" />
        <path class="b" d="M165.13,187.95c0,1.82,1.47,3.29,3.28,3.29s3.28-1.47,3.28-3.29-1.47-3.29-3.28-3.29-3.28,1.47-3.28,3.29Z" />
        <path class="h" d="M235.49,260.74c0,2.5,2.02,4.52,4.51,4.52s4.51-2.02,4.51-4.52-2.02-4.52-4.51-4.52-4.51,2.02-4.51,4.52Z" />
        <path class="h" d="M360.77,235.92c0,2.5,2.02,4.52,4.51,4.52s4.51-2.02,4.51-4.52-2.02-4.52-4.51-4.52-4.51,2.02-4.51,4.52Z" />
        <path class="h" d="M564.01,46.42c0,2.5,2.02,4.52,4.51,4.52s4.51-2.02,4.51-4.52-2.02-4.52-4.51-4.52-4.51,2.02-4.51,4.52Z" />
        <ellipse class="h" cx="56.48" cy="258.53" rx="4.51" ry="4.52" />
        <path class="h" d="M97.89,167.29c0,2.5,2.02,4.52,4.51,4.52s4.51-2.02,4.51-4.52-2.02-4.52-4.51-4.52-4.51,2.02-4.51,4.52Z" />
        <path class="h" d="M63.76,144.16c0,2.5,2.02,4.52,4.51,4.52s4.51-2.02,4.51-4.52-2.02-4.52-4.51-4.52-4.51,2.02-4.51,4.52Z" />
        <path class="h" d="M544.42,319.22c0,2.5,2.02,4.52,4.51,4.52s4.51-2.02,4.51-4.52-2.02-4.52-4.51-4.52-4.51,2.02-4.51,4.52Z" />
        <path class="b" d="M529.77,256.19c0,2.5,2.02,4.52,4.51,4.52s4.51-2.02,4.51-4.52-2.02-4.52-4.51-4.52-4.51,2.02-4.51,4.52Z" />
        <path class="b" d="M245.41,14.66c0,1.81,1.47,3.29,3.28,3.29s3.28-1.47,3.28-3.29-1.47-3.29-3.28-3.29-3.28,1.47-3.28,3.29Z" />
        <path class="j" d="M391.59,342.47c0,1.81,1.47,3.29,3.28,3.29s3.28-1.47,3.28-3.29-1.47-3.29-3.28-3.29-3.28,1.47-3.28,3.29Z" />
        <path class="j" d="M571.47,123.41c0,1.81,1.47,3.29,3.28,3.29s3.28-1.47,3.28-3.29-1.47-3.29-3.28-3.29-3.28,1.47-3.28,3.29Z" />
        <path class="j" d="M27.89,156.49c0,1.81,1.47,3.29,3.28,3.29s3.28-1.47,3.28-3.29-1.47-3.29-3.28-3.29-3.28,1.47-3.28,3.29Z" />
        <path class="b" d="M396.41,314.14c0,.68,.55,1.24,1.23,1.24s1.23-.55,1.23-1.24-.55-1.24-1.23-1.24-1.23,.55-1.23,1.24Z" />
        <path class="b" d="M57.68,93.67c0,.68,.55,1.24,1.23,1.24s1.23-.55,1.23-1.24-.55-1.24-1.23-1.24-1.23,.55-1.23,1.24Z" />
        <path class="f" d="M570.86,319.15c0,1.56,1.26,2.83,2.82,2.83s2.82-1.27,2.82-2.83-1.26-2.83-2.82-2.83-2.82,1.27-2.82,2.83Z" />
        <path class="f" d="M435.21,276.57c0,1.56,1.26,2.83,2.82,2.83s2.82-1.27,2.82-2.83-1.26-2.83-2.82-2.83-2.82,1.27-2.82,2.83Z" />
        <path class="f" d="M235.51,29.57c0,1.56,1.26,2.83,2.82,2.83s2.82-1.27,2.82-2.83-1.26-2.83-2.82-2.83-2.82,1.27-2.82,2.83Z" />
        <path class="f" d="M10.47,269.83c0,1.56,1.26,2.83,2.82,2.83s2.82-1.27,2.82-2.83-1.26-2.83-2.82-2.83-2.82,1.27-2.82,2.83Z" />
        <path class="f" d="M117.12,349.89c0,1.56,1.26,2.83,2.82,2.83s2.82-1.27,2.82-2.83-1.26-2.83-2.82-2.83-2.82,1.27-2.82,2.83Z" />
        <path class="f" d="M276.28,314.25c0,2.56,2.07,4.63,4.62,4.63s4.62-2.07,4.62-4.63-2.07-4.63-4.62-4.63-4.62,2.07-4.62,4.63Z" />
    </g>
    <g>
        <path class="c" d="M197.68,132.65c1.06-.12,2.01-.97,2.1-2.11,.07-.88,.66-4.77,.66-4.77,0,0,.5,3.9,.66,4.77,.23,1.29,1,1.95,2.1,2.11,.88,.12,4.76,.66,4.76,.66,0,0-3.89,.55-4.76,.66-1.4,.19-1.96,1.08-2.1,2.11-.12,.88-.66,4.77-.66,4.77,0,0-.57-3.89-.66-4.77-.12-1.18-.98-1.98-2.1-2.11-.88-.1-4.76-.66-4.76-.66,0,0,3.89-.56,4.76-.66Z" />
        <path class="c" d="M569.12,27.74c1.06-.12,2.01-.97,2.1-2.11,.07-.88,.66-4.77,.66-4.77,0,0,.5,3.9,.66,4.77,.23,1.29,1,1.95,2.1,2.11,.88,.12,4.76,.66,4.76,.66,0,0-3.89,.55-4.76,.66-1.4,.18-1.96,1.08-2.1,2.1-.12,.88-.66,4.77-.66,4.77,0,0-.57-3.89-.66-4.77-.12-1.18-.98-1.98-2.1-2.11-.88-.1-4.76-.66-4.76-.66,0,0,3.89-.56,4.76-.66Z" />
        <path class="c" d="M298.06,172.19c1.06-.12,2.01-.97,2.1-2.11,.07-.88,.66-4.77,.66-4.77,0,0,.5,3.9,.66,4.77,.23,1.29,1,1.95,2.1,2.11,.88,.12,4.76,.66,4.76,.66,0,0-3.89,.55-4.76,.66-1.4,.18-1.96,1.08-2.1,2.11-.12,.88-.66,4.77-.66,4.77,0,0-.57-3.89-.66-4.77-.12-1.18-.98-1.98-2.1-2.11-.88-.1-4.76-.66-4.76-.66,0,0,3.88-.56,4.76-.66Z" />
        <path class="c" d="M450.57,252.52c1.4-.16,2.67-1.29,2.79-2.8,.09-1.17,.88-6.34,.88-6.34,0,0,.67,5.18,.88,6.34,.31,1.72,1.33,2.59,2.79,2.8,1.16,.16,6.33,.88,6.33,.88,0,0-5.16,.73-6.33,.88-1.86,.25-2.61,1.44-2.79,2.8-.16,1.16-.88,6.34-.88,6.34,0,0-.76-5.17-.88-6.34-.16-1.57-1.31-2.63-2.79-2.8-1.17-.13-6.33-.88-6.33-.88,0,0,5.16-.75,6.33-.88Z" />
        <path class="c" d="M39.21,26.55c1.13-.13,2.16-1.04,2.26-2.26,.08-.95,.71-5.12,.71-5.12,0,0,.54,4.18,.71,5.12,.25,1.39,1.07,2.09,2.25,2.26,.94,.13,5.11,.71,5.11,.71,0,0-4.17,.59-5.11,.71-1.5,.2-2.11,1.16-2.25,2.26-.13,.94-.71,5.12-.71,5.12,0,0-.62-4.17-.71-5.12-.13-1.27-1.05-2.13-2.25-2.26-.94-.1-5.11-.71-5.11-.71,0,0,4.17-.6,5.11-.71Z" />
        <path class="c" d="M302.67,294.4c1.34-.16,2.55-1.23,2.67-2.68,.09-1.12,.84-6.06,.84-6.06,0,0,.64,4.95,.84,6.06,.3,1.64,1.27,2.48,2.67,2.67,1.11,.15,6.04,.84,6.04,.84,0,0-4.93,.7-6.04,.84-1.78,.24-2.49,1.37-2.67,2.67-.15,1.11-.84,6.06-.84,6.06,0,0-.73-4.94-.84-6.06-.15-1.5-1.25-2.52-2.67-2.68-1.11-.12-6.05-.84-6.05-.84,0,0,4.93-.71,6.05-.84Z" />
        <path class="c" d="M18.1,333.86c1.17-.14,2.23-1.08,2.33-2.34,.08-.98,.73-5.3,.73-5.3,0,0,.56,4.33,.73,5.3,.26,1.44,1.11,2.17,2.33,2.34,.97,.13,5.29,.74,5.29,.74,0,0-4.31,.61-5.29,.74-1.55,.21-2.18,1.2-2.33,2.34-.13,.97-.74,5.3-.74,5.3,0,0-.64-4.32-.74-5.3-.13-1.31-1.09-2.2-2.33-2.34-.98-.11-5.29-.73-5.29-.73,0,0,4.31-.62,5.29-.74Z" />
        <path class="c" d="M331.05,17.4c.65-.08,1.24-.6,1.29-1.29,.04-.54,.41-2.93,.41-2.93,0,0,.31,2.4,.41,2.93,.14,.8,.61,1.2,1.29,1.29,.54,.07,2.93,.41,2.93,.41,0,0-2.39,.34-2.93,.41-.86,.11-1.21,.66-1.29,1.29-.07,.54-.41,2.93-.41,2.93,0,0-.35-2.39-.41-2.93-.07-.73-.6-1.22-1.29-1.3-.54-.06-2.93-.41-2.93-.41,0,0,2.39-.34,2.93-.41Z" />
    </g>
    <g>
        <path class="i" d="M101.59,143.05c0,2.65,2.14,4.8,4.79,4.8s4.79-2.15,4.79-4.8-2.14-4.8-4.79-4.8-4.79,2.15-4.79,4.8Z" />
        <path class="i" d="M510.3,171.31c0,2.65,2.14,4.8,4.79,4.8s4.79-2.15,4.79-4.8-2.14-4.8-4.79-4.8-4.79,2.15-4.79,4.8Z" />
        <path class="i" d="M182.51,189.98c0,1.16,.94,2.1,2.1,2.1s2.1-.94,2.1-2.1-.94-2.1-2.1-2.1-2.1,.94-2.1,2.1Z" />
        <path class="i" d="M508.74,68.65c0,1.01,.82,1.83,1.83,1.83s1.83-.82,1.83-1.83-.82-1.83-1.83-1.83-1.83,.82-1.83,1.83Z" />
        <path class="i" d="M326.95,281.53c0,2.02,1.64,3.67,3.66,3.67s3.66-1.64,3.66-3.67-1.64-3.67-3.66-3.67-3.66,1.64-3.66,3.67Z" />
        <path class="i" d="M501.54,287.93c0,3.18,2.57,5.76,5.75,5.76s5.74-2.58,5.74-5.76-2.57-5.76-5.74-5.76-5.75,2.58-5.75,5.76Z" />
    </g>
</svg>