<?xml version="1.0" encoding="UTF-8"?>
<svg id="a" xmlns="http://www.w3.org/2000/svg" xmlns:xlink="http://www.w3.org/1999/xlink" viewBox="0 0 595.28 187">
    <defs>
        <style>.d{fill:#fff;}.e{filter:url(#b);}</style>
        <filter id="b" filterUnits="userSpaceOnUse">
            <feOffset dx="15" dy="15" />
            <feGaussianBlur result="c" stdDeviation="5" />
            <feFlood flood-color="#010101" flood-opacity=".75" />
            <feComposite in2="c" operator="in" />
            <feComposite in="SourceGraphic" />
        </filter>
    </defs>
    <g class="e">
        <path class="d" d="M19.98,137.19V49.72h28.01c6.26,0,10.88,.35,13.95,1.06,9.93,2.25,18.2,9.93,18.2,21.75,0,7.45-3.55,14.07-10.16,17.73,9.57,3.31,14.42,10.28,14.42,20.33,0,8.39-3.55,16.08-10.16,20.68-6.86,4.85-11.35,5.91-25.18,5.91H19.98Zm30.26-54.25c5.56,0,8.51-2.36,8.51-6.97s-2.84-6.62-8.39-6.62h-8.98v13.59h8.86Zm2.6,34.63c6.26,0,10.17-2.72,10.17-8.39,0-5.08-3.43-7.56-10.05-7.56h-11.58v15.96h11.46Z" />
        <path class="d" d="M89.6,137.19V71.59h18.44v6.97h.23c3.43-6.97,8.86-9.22,16.43-9.22v19.74c-11.7,.12-15.48,4.49-15.48,11.94v36.17h-19.62Z" />
        <path class="d" d="M129.2,137.19V71.59h19.62v65.6h-19.62Zm17.65-103.84l12.17,1.8c1.01,.14,1.85,.86,2.18,1.83,.32,.98,.06,2.05-.67,2.78l-8.82,8.65,2.08,12.41c.17,1.02-.25,2.05-1.09,2.65-.84,.6-1.95,.68-2.85,.19l-10.87-5.8-10.86,5.8c-.91,.48-2.02,.41-2.86-.19-.84-.6-1.26-1.63-1.08-2.65l2.08-12.41-8.83-8.65c-.73-.73-.99-1.8-.67-2.78,.32-.97,1.16-1.69,2.18-1.83l12.16-1.8,5.45-11.21c.45-.93,1.4-1.53,2.43-1.53s1.99,.59,2.44,1.53l5.44,11.21Z" />
        <path class="d" d="M205.33,129.51c-2.96,6.26-10.28,9.81-18.32,9.81-19.15,0-32.98-14.78-32.98-34.52s14.06-35.34,32.98-35.34c8.51,0,15.01,3.19,18.2,8.27h.24v-6.15h19.62v58.63c0,8.86-1.18,15.6-3.55,20.09-4.73,9.1-17.61,16.08-34.04,16.08-18.56,0-30.61-10.52-32.27-23.05h22.69c2.25,4.85,6.62,6.5,11.47,6.5,9.93,0,15.96-6.5,15.96-18.44v-1.89Zm.12-24.82c0-9.57-6.5-16.9-16.08-16.9-8.75,0-15.72,7.33-15.72,16.31s6.26,16.9,15.72,16.9,16.08-6.86,16.08-16.31Z" />
        <path class="d" d="M274.25,137.19v-36.05c0-8.51-3.31-13.36-10.52-13.36s-10.99,4.37-10.99,12.53v36.88h-19.62V49.72h19.62v28.13c2.84-5.32,9.22-8.51,17.02-8.51,15.01,0,24.11,9.46,24.11,26.59v41.25h-19.62Z" />
        <path class="d" d="M305.82,137.19v-50.71h-9.69v-14.89h9.69v-21.87h19.62v21.87h9.46v14.89h-9.46v50.71h-19.62Z" />
        <path class="d" d="M403.22,75.25c-.95-6.26-3.55-8.51-7.92-8.51-4.14,0-7.68,2.96-7.68,6.86,0,5.2,4.73,7.56,14.3,11.7,19.27,8.27,24.11,15.25,24.11,26.71,0,16.9-11.58,26.83-30.5,26.83s-31.56-9.93-31.56-28.72v-1.89h22.22c.12,7.21,3.66,11.94,9.22,11.94,4.61,0,8.39-3.66,8.39-8.39,0-6.97-9.69-10.05-17.61-13.24-14.3-5.79-20.8-13.36-20.8-24.7,0-14.89,14.42-25.77,30.5-25.77,5.79,0,10.87,1.3,15.48,3.67,9.34,4.85,13.83,11.82,13.95,23.52h-22.1Z" />
        <path class="d" d="M433.09,137.19v-50.71h-9.69v-14.89h9.69v-21.87h19.62v21.87h9.46v14.89h-9.46v50.71h-19.62Z" />
        <path class="d" d="M540.19,137.19V71.59h18.44v6.97h.23c3.43-6.97,8.86-9.22,16.43-9.22v19.74c-11.7,.12-15.48,4.49-15.48,11.94v36.17h-19.62Z" />
        <path class="d" d="M512.29,71.59v6.97h-.24c-3.78-6.03-11.23-9.22-19.27-9.22-18.79,0-32.86,15.6-32.86,34.99s13.47,35.1,32.86,35.1c8.63,0,16.43-3.55,19.27-9.34h.24v7.09h19.62V71.59h-19.62Zm-2.03,29.92l-6.5,6.38,1.54,9.15c.12,.75-.18,1.51-.81,1.95-.62,.44-1.44,.5-2.1,.14l-8.01-4.28-8.01,4.28c-.67,.36-1.49,.3-2.11-.14-.62-.44-.93-1.2-.8-1.95l1.54-9.15-6.5-6.38c-.54-.54-.73-1.32-.49-2.05,.24-.72,.86-1.24,1.61-1.35l8.96-1.32,4.02-8.26c.33-.69,1.03-1.12,1.79-1.12s1.47,.44,1.8,1.12l4.01,8.26,8.97,1.32c.74,.11,1.37,.63,1.6,1.35,.24,.72,.04,1.51-.49,2.05Z" />
    </g>
</svg>