<?xml version="1.0" encoding="UTF-8"?><svg id="a" xmlns="http://www.w3.org/2000/svg" viewBox="0 0 1026.85 304"><defs><style>.b{fill:#fff;}</style></defs><path class="b" d="M1026.85,86.02c.07-15.11-19.68-24.29-34.83-20.26-15.15,4.02-26.09,16.34-36.06,28.03-1.44-6.69-9.46-11.3-16.26-9.36-6.81,1.94-10.91,10.02-8.32,16.37-.89-8.42-12.05-11.36-20.85-11.48-13.81-.18-28.43,1.75-39.25,10-12.42,9.48-17.33,25.18-21.56,39.87-8.41-13.5-28.76-18.52-42.88-10.56,4.43-9.63-.12-22.2-9.82-27.1-9.77-4.94-27.66,.08-27.66,.08,0,0-2.99-13.14-5.53-15.68-36.3-36.35-76.39-7.11-84.51,.88,3.09-12.55-9.37-25.25-21.78-25.25-27.51,0-35.84,9.78-33.98,17.33-4-16.21-17-33.79-36.21-29.82-15.23,3.15-26.15,21.2-18.6,34.3-1.05-8.01-12.43-11.42-19.94-7.79-7.51,3.63-11.62,11.49-14.59,19.05-4.29-13.03-19.16-21.99-33.23-20-14.07,1.98-25.64,14.66-25.86,28.33-3.35-6.05-12.76-6.91-18.7-3.12-5.93,3.79-8.86,10.72-10.12,17.47-1.32-8.84-9.93-16.13-19.22-16.27-8.76-.14-15.24,5.68-19.44,12.46-5.52-24.37-21.97-36.79-50.16-33.4-28.98,3.48-35.04,28.04-35.04,28.04,0,0-13.91-9.38-30.55-7.42s-22.96,9.49-20.8,20.06c-5.64-14.07-18.93-25.06-34.23-28.34-15.31-3.27-32.19,1.27-43.5,11.71,6.04-13.68,.3-31.19-12.8-39.07s-31.98-5.2-42.15,6c2.73-4.99-2-11.36-7.71-12.62-5.71-1.26-11.59,1.01-16.83,3.52,4.73-8.66,.92-20.66-8.03-25.31-8.95-4.65-21.47-1.14-26.42,7.4,1.6-6.34-2.07-13.14-7.6-16.91-5.54-3.77-12.56-4.95-19.34-5.01-20.29-.16-40.4,9.47-52.49,25.13V304H1026.85V86.02Z"/></svg>