<?xml version="1.0" encoding="UTF-8"?><svg id="a" xmlns="http://www.w3.org/2000/svg" viewBox="0 0 566.93 566.93"><defs><style>.b{fill:#02888b;}.c{fill:#01afb5;}.d{fill:#80b22b;}.e{fill:#72c4ba;}.f{fill:#b5ce45;}.g{fill:#cce7e6;}.h{fill:#dbe38e;}.i{fill:#a1d4cb;}.j{fill:#94cfc7;opacity:.2;}</style></defs><path class="j" d="M21.27,283.47c0,144.8,117.39,262.19,262.19,262.19s262.19-117.39,262.19-262.19S428.27,21.27,283.46,21.27,21.27,138.66,21.27,283.47Z"/><g><path class="e" d="M69.46,283.47c0,118.19,95.81,214,214,214s214.01-95.81,214.01-214-95.82-214-214.01-214S69.46,165.28,69.46,283.47Z"/><path class="b" d="M268.27,138.2c-7.29-7.96-3.31-21.87,11.27-25.19,14.58-3.31,19.88-7.95,15.25-17.23-4.64-9.28,8.61-16.57,20.55-21.21l7.4-1.49c82.88,15.37,107.23,110.92,124.03,180.42,16.94,70.1,14.07,167.16-40.99,205.59-11.39,6.87-21.67,12.93-29.53,17.29-5.36,2.58-10.86,4.94-16.45,7.07-8.65-.92-15.04-10.95-9.98-19.8,5.3-9.28,9.28-25.19-13.26-34.47-22.54-9.28-16.57-30.49,13.26-41.75,29.83-11.27,21.21-22.54,5.3-45.74-15.91-23.2-1.99-34.46,24.52-33.8,26.51,.66,29.83-3.98,27.84-20.55-1.99-16.57,1.33-20.55,22.53-23.2,21.21-2.65,6.63-13.92-4.64-15.24-11.27-1.33-20.55,7.95-21.21-6.63-.67-14.58-15.25-15.91-21.21-4.64-5.97,11.27-15.91,14.58-28.5-12.59-12.6-27.17-32.48-23.86-55.02-15.91-22.53,7.95-14.58-2.65-13.25-17.89,1.33-15.25-15.91-13.26-27.18-23.86-11.27-10.61,16.57-21.21,9.28-29.17Z"/><path class="b" d="M257.32,320.67c1.93,14,6.29,32.85-13.28,38.44-19.57,5.59-32.85,18.87-34.94,30.75-2.1,11.88-26.56-5.59-27.96,3.49-1.39,9.09,20.97,17.47,24.46,30.75,3.5,13.28-4.19,19.57,16.07,25.86,20.27,6.29,27.96,41.23,27.96,41.23,0,0-51.72-10.49-76.18-37.04-24.46-26.55-46.83-73.38-19.57-85.26,27.25-11.88,100.64-68.49,103.43-48.22Z"/><path class="b" d="M179.05,106.82c4.89,7.69,.7,9.09-1.4,23.06-2.09,13.98,25.16,14.67,16.78,27.25-8.39,12.58-28.66,34.95-15.38,25.86,13.27-9.09,42.63-10.49,31.45,3.49-11.18,13.98-16.78,26.56,1.4,35.65,18.17,9.08-2.79,28.65-28.66,21.66-25.85-6.99-13.97,9.78-20.26,20.27-6.29,10.48-30.75,.7-27.26,16.77,3.49,16.08-12.58,13.28-12.58-.7s4.89-28.65-8.39-34.94c-13.28-6.29-16.07,14.68-27.95,11.88-11.89-2.8-7.69-24.46-7.69-24.46l97.14-123.7s-2.09-9.78,2.8-2.1Z"/><path class="d" d="M278.35,172.43c-13.86-7.84-9.04-21.1-.6-24.12,8.44-3.01,6.03-5.43-.61-10.25-6.63-4.83,4.83-23.52,15.08-23.52s25.32-4.82,11.45-18.69c-9.4-9.4-1.35-19.34,11.57-24.03,78.36,11.67,142.84,65.8,169.29,138.25,2.56,19.57-3.19,30.14-12.62,24.48-12.06-7.24-13.87,1.81-12.06,16.88,1.81,15.07,5.43,20.5,28.34,34.37,3.25,1.97,6.28,4.04,9.07,6.27-3.38,85.49-56.9,158.08-131.97,189.18-5.13,.99-8.6,.67-9.76-1.28-9.05-15.07,22.31-37.99,6.03-48.24-16.28-10.25-18.69-28.35,9.04-43.42,27.74-15.07,8.44-27.73-3.02-43.42-11.46-15.68-12.66-38,15.08-38s35.58-7.83,34.37-27.13c-1.21-19.29,10.66-14.51,24.53-17.53,13.87-3.02-10.06-27.1-19.11-20.46-9.04,6.63-11.46-5.43-13.87-17.49-2.41-12.06-17.49-6.03-26.53,4.83-9.05,10.86-17.49-13.87-27.14-31.96-9.65-18.09-33.77-16.88-41.61-7.24-7.84,9.65-24.12,14.47-21.1,4.82,3.01-9.65,0-14.47-13.88-22.31Zm-98.29,211.05c18.69,4.23,30.75-2.41,36.78-15.67,6.03-13.27,25.93-13.87,38.59-36.18,12.66-22.31-9.04-37.38-22.92-25.32-13.87,12.06-21.1-10.25-36.78-24.12-15.68-13.87-28.34,3.01-47.04,19.9-18.69,16.88-15.68,2.41-25.93-10.25-10.25-12.66-8.45,6.63-21.71,3.01-9.01-2.45-21.89,6.2-29.62,17.86,13.2,96.63,90.89,172.71,188.29,183.45-6.76-3.7-10.41-6.43-10.93-13.17-.6-7.84-7.84-10.85-27.14-16.28-19.29-5.43-17.49-11.45-18.69-22.31-1.21-10.85-7.24-21.71-21.71-30.15-14.48-8.44-19.9-34.97-1.21-30.76Zm-53.07-137.48c6.02,15.68-9.05,22.31-6.63,33.17,2.41,10.85,11.46,9.04,7.24,2.41-4.23-6.64-2.41-9.05,13.87-17.49,16.28-8.44,21.71-10.85,13.27-19.9-8.44-9.04,7.24-18.69,24.12-16.88,16.89,1.81,19.9-7.84,9.65-15.08-10.25-7.24,5.43-12.66,5.43-22.31s-16.28,3.62-24.72,7.84c-8.44,4.22-2.42-24.72,5.43-31.96,7.84-7.24,12.66-12.06,3.02-16.88-9.65-4.83-9.65-15.07,1.81-28.94,5.86-7.09,4.03-16.48-1.67-22.63-51.79,29.47-90.08,79.93-103.29,139.8,6.35,10.53,16.58,12.53,24.75-.19,10.86-16.89,21.71-6.63,27.74,9.04Z"/><path class="i" d="M194.64,119.6c39.58-28.39,147.38-40.77,161.5,42.33,14.11,83.1-122.3,153.66-185.02,120.73-62.72-32.93-48.61-111.32,23.52-163.07Z"/><path class="c" d="M177.72,133.15c2.2,10.9,24.38,12.47,16.71,23.98-8.39,12.58-28.66,34.95-15.38,25.86,13.27-9.09,42.63-10.49,31.45,3.49-11.18,13.98-16.78,26.56,1.4,35.65,18.17,9.08-2.79,28.65-28.66,21.66-25.85-6.99-13.97,9.78-20.26,20.27-2.09,3.48-6.18,4.72-10.59,5.42-36.13-34.01-24.47-91.76,25.33-136.33Z"/><path class="c" d="M268.27,138.2c-7.29-7.96-3.31-21.87,11.27-25.19,11.66-2.65,17.36-6.16,16.82-12.19,28.92,6.26,53.52,24.33,59.77,61.11,3.02,17.83-.9,35.08-9.51,50.86-12.33-13.54-28.88-10.14-47.2-3.67-22.53,7.95-14.58-2.65-13.25-17.89,1.33-15.25-15.91-13.26-27.18-23.86-11.27-10.61,16.57-21.21,9.28-29.17Z"/><path class="f" d="M313.33,189.92c-7.84,9.65-24.12,14.47-21.1,4.82,3.01-9.65,0-14.47-13.88-22.31-13.86-7.84-9.04-21.1-.6-24.12,8.44-3.01,6.03-5.43-.61-10.25-6.63-4.83,4.83-23.52,15.08-23.52,7.73,0,18.2-2.74,16.93-10.05,23.15,8.49,41.68,26.23,46.98,57.44,1.95,11.49,1.01,22.73-2.2,33.5-10.22-16.28-33.02-14.85-40.61-5.51Zm-117.58,92.26c-8.78-7.76-16.62-5.89-25.09,.23,.16,.08,.31,.17,.46,.26,9.51,4.99,20.72,7.59,32.84,8.14-2.5-2.99-5.2-5.96-8.21-8.63Zm-1.81-92.26c0-9.65-16.28,3.62-24.72,7.84-8.44,4.22-2.42-24.72,5.43-31.96,7.84-7.24,12.66-12.06,3.02-16.88-4.17-2.08-6.53-5.19-6.95-9.15-40.59,40.33-51.21,89.51-25.22,122.25,13.09-6.82,16.96-9.57,9.26-17.82-8.44-9.04,7.24-18.69,24.12-16.88,16.89,1.81,19.9-7.84,9.65-15.08-10.25-7.24,5.43-12.66,5.43-22.31Z"/><path class="g" d="M227.92,110.56c26.06-7.11,33.45,3.91,25.27,13.42-4.92,5.71-23.51,18.57-42.15,19.11-30.04,.87-15.22-23.78,16.88-32.54Z"/><path class="g" d="M201.32,261.67c12.85,4.73,12.67,11.45,6.49,12.97-3.7,.91-15.17,.76-23.03-4.49-12.67-8.47,.71-14.3,16.54-8.48Z"/><path class="g" d="M310.33,473.84c20.75-1.51,22.85,4.33,14.22,8.31-5.19,2.39-22.25,7.22-35.78,6.11-21.79-1.78-4.01-12.56,21.55-14.42Z"/><path class="f" d="M354.15,95.99c33.79,12.82,69.57,38.15,89.77,71.82,20.2,33.66,18.95,54-1.24,38.29-20.2-15.71-29.84-22.24-41.06-3.16-11.22,19.08-20.54-21.67-28.39-54.21-7.86-32.54-51.62-65.08-19.08-52.74Z"/><path class="h" d="M429.57,162.5c8.81,13.94-14.81,.62-27.15-12.96-12.93-14.22-19.7-17.71-23.7-27.93-6.45-16.48,39.99,23.72,50.85,40.89Z"/><path class="f" d="M482.08,323.78c8.87-36.28-47.13-40.4-48.26-13.46-1.12,26.93-17.95,20.19-41.52,17.95-23.56-2.24,1.12,26.94,19.08,46.01,17.96,19.08,1.12,46.01-20.2,69.57-21.32,23.56,66.21-19.08,90.89-120.07Z"/><path class="h" d="M468.69,345.63c-7.65,19.88-17.91,22.88-18.76,18.65-3.7-18.51,13.6-43.33,18.14-47.91,7.32-7.38,4.71,18.62,.61,29.26Z"/><path class="f" d="M89.33,328.27c.45-18.4,39.27-16.83,33.66,19.08-2.36,15.08,22.23,1.75,28.05-15.71,12.35-37.03,52.74,17.95,29.18,32.54-23.57,14.59-44.88,12.34-33.66,34.78,11.22,22.44,52.74,50.5,22.44,41.52-30.3-8.98-80.79-66.21-79.67-112.21Z"/><path class="h" d="M108.74,373.16c-6.84-12.82-3.79-19.45-1.23-18,11.2,6.36,16.26,26.37,16.59,30.76,.54,7.08-11.7-5.89-15.36-12.76Z"/></g></svg>