<?xml version="1.0" encoding="UTF-8"?>
<svg id="a" xmlns="http://www.w3.org/2000/svg" viewBox="0 0 566.93 501">
    <defs>
        <style>.b{fill:#f7b18c;}.c{fill:#f8bd9c;}.d{fill:#e95840;}.e{fill:#fbd5bb;}.f{fill:#e63d16;}.g{fill:#ea6330;}.h{fill:#f39561;}.i{fill:#e53f23;}.j{fill:#f1865d;}.k{fill:#be1b23;}.l{fill:#d8362f;}.m{fill:#f3a78a;opacity:.2;}</style>
    </defs>
    <circle class="m" cx="283.46" cy="250.5" r="239" />
    <g>
        <path class="f" d="M88.4,250.5c0,107.74,87.33,195.08,195.07,195.08s195.07-87.34,195.07-195.08S391.2,55.43,283.46,55.43,88.4,142.77,88.4,250.5Z" />
        <path class="k" d="M283.46,55.43c22.14,0,43.43,3.7,63.27,10.5-27.37-.71-70.46,5.62-37.14,20.99,37.76,17.43,31.95,39.51-12.21,56.94-44.15,17.42-34.28,29.63-12.2,42.99,22.08,13.36,11.62,23.24-11.04,32.53-22.66,9.3,8.13,27.31,72.62,44.74,64.49,17.42,103.99,61.58,61.59,101.67-42.42,40.09-98.77,48.8-92.96,36.02,5.81-12.78,22.08-16.85,45.89-41.25,23.83-24.4-5.22-41.83-42.99-31.37-37.76,10.45-29.63,70.88-69.72,63.33-40.09-7.55-65.07-52.29-65.07-26.15,0,17.35-1.27,38.26-2.14,50.38-55.78-34.33-92.97-95.94-92.97-166.25,0-107.73,87.33-195.07,195.07-195.07Z" />
        <path class="d" d="M202.5,101.13c36.08-25.88,134.35-37.16,147.21,38.58,12.87,75.75-111.48,140.07-168.65,110.05-57.17-30.01-44.3-101.47,21.44-148.64Z" />
        <path class="l" d="M202.5,101.13c28.27-20.28,94.74-31.59,128.36,.92,10.43,14.01-1.38,29.13-33.48,41.8-44.15,17.42-34.28,29.63-12.2,42.99,22.08,13.36,11.62,23.24-11.04,32.53-12.14,4.98-8.93,12.46,6.57,21.01-34.38,17.26-73.86,22.93-99.66,9.38-57.17-30.01-44.3-101.47,21.44-148.64Z" />
        <path class="g" d="M144.59,244.85c39.42-2.08,4.15,35.27,53.95,64.32,49.8,29.05,114.12-18.67,82.99-45.65-31.12-26.97-76.77-35.27-114.12-45.65-37.35-10.38-12.45-24.9,8.3-45.65,20.75-20.75,18.67-45.65-18.67-29.05-18.09,8.05-27.91,1.48-28.51-11.21,35.66-46.52,91.78-76.54,154.93-76.54,2.81,0,5.61,.08,8.39,.2-14.86,7.6-35.63,20.95-18.62,29.46,24.9,12.45-64.31,47.72-45.65,72.62,18.67,24.9,68.48,31.13,20.75,45.65-47.73,14.52,39.43,45.65,93.37,60.17,53.95,14.53,91.3,12.45,35.28-22.82-56.03-35.27,20.75-62.25,56.03-47.72,19.58,8.06,31.47,2.04,31.79-14.48,8.86,22.28,13.73,46.57,13.73,72,0,11.49-1,22.74-2.91,33.68-10.28,7.07-21.29,13.58-30.17,18.77-20.55,11.99-10.01,29.64-3.37,61.1-35.4,49.36-93.25,81.53-158.63,81.53-15.77,0-31.09-1.89-45.77-5.42,7.03-2.69,15.52-4.95,25.17-6.49,51.88-8.3,76.78-2.08,51.88-14.52-24.91-12.45,29.04-35.28,74.69-68.47,45.65-33.21-53.95-47.73-85.06-37.35-31.13,10.38-58.1,58.1-87.15,31.13-29.05-26.97-39.43-29.05-49.8,6.23-4.86,16.51-19.73,23.03-36.31,21.65-26.72-33.38-42.72-75.73-42.72-121.82,0-5.28,.21-10.51,.62-15.67,10.84,10.89,28.21,11.46,55.57,10.02Z" />
        <path class="j" d="M175.72,172.23c19.62-19.62,18.82-42.93-12.9-31.38,9.61-14.09,22.92-27.69,39.68-39.72,14.88-10.67,40.34-18.86,66.03-19.48,1.03,1.21,2.57,2.36,4.72,3.43,24.9,12.45-64.31,47.72-45.65,72.62,18.67,24.9,68.48,31.13,20.75,45.65-30.08,9.16-6.56,24.91,28.45,38.94-5.35,2.52-10.8,4.75-16.29,6.69-28.66-15.95-63.47-22.88-93.08-31.11-37.35-10.38-12.45-24.9,8.3-45.65Z" />
        <path class="c" d="M210.94,104.43c25.83-14.69,29.59,5.53,22.96,12.22-3.15,3.18-11.12,11.12-22.7,12.97-18.67,2.99-19.12-14.46-.26-25.19Z" />
        <path class="h" d="M376.6,389.74c25.83-14.69,27.7-1.43,21.06,5.26-3.15,3.18-21.02,17.66-32.6,19.51-18.67,2.99-7.32-14.04,11.54-24.77Z" />
        <path class="h" d="M112.71,289.22c5.19,20.18-4.47,19.43-7.85,13.8-1.61-2.68-8.22-17.31-7.24-25.63,1.6-13.42,11.29-2.91,15.08,11.83Z" />
        <path class="h" d="M468.77,227.2c1.75,16.58-7.18,16.44-9.47,11.9-1.09-2.16-5.02-14.03-2.82-21.01,3.56-11.27,11.01-2.99,12.29,9.11Z" />
        <path class="h" d="M470.18,269.07c-2.11,10.34-7.47,8.55-7.99,5.38-.24-1.51-.35-9.43,2.31-13.23,4.31-6.13,7.22,.3,5.68,7.85Z" />
        <path class="l" d="M434.79,217.82c-10.44-17.91-49.89-9.98-33.05,11.85,16.84,21.83,59.24,33.05,33.05-11.85Z" />
        <path class="i" d="M145.44,306.37c-10.76-22.4-32.43-.62-16.21,27.44,16.21,28.06,38.66,19.33,16.21-27.44Z" />
        <g>
            <path class="b" d="M315.91,272.53c0-10.5-18.35-17.59-16.31-7.15,2.04,10.44,16.31,19.24,16.31,7.15Z" />
            <path class="b" d="M392.37,99.28c-2.28-6.89-15.86-7.57-12.25-1.15,3.61,6.41,14.87,9.09,12.25,1.15Z" />
            <path class="b" d="M371.49,90.72c-2.27-6.89-15.85-7.57-12.25-1.15,3.61,6.41,14.87,9.09,12.25,1.15Z" />
            <path class="e" d="M249.23,190.68c-2.28-6.89-15.85-7.57-12.25-1.15,3.61,6.41,14.87,9.09,12.25,1.15Z" />
            <path class="b" d="M211.84,238.96c-1.65-5.04-11.57-5.52-8.94-.84,2.63,4.68,10.86,6.64,8.94,.84Z" />
            <path class="e" d="M252.21,97.09c-1.66-5.03-11.57-5.53-8.94-.84,2.62,4.68,10.86,6.64,8.94,.84Z" />
            <path class="e" d="M181.06,188.7c-8.63-5.21-26.58,11.37-16.65,14.32,9.92,2.95,26.58-8.32,16.65-14.32Z" />
            <path class="b" d="M172.17,109.28c-4.05-2.44-12.47,5.33-7.82,6.72,4.65,1.39,12.47-3.9,7.82-6.72Z" />
            <path class="b" d="M154.04,128.52c-4.05-2.44-12.48,5.33-7.82,6.72,4.66,1.38,12.47-3.9,7.82-6.72Z" />
            <path class="b" d="M106.58,255.99c-1.66-5.03-11.58-5.52-8.94-.84,2.63,4.68,10.86,6.63,8.94,.84Z" />
            <path class="b" d="M330.16,175.81c-2.59-7.82-17.99-8.58-13.9-1.31,4.09,7.27,16.88,10.31,13.9,1.31Z" />
        </g>
    </g>
</svg>