<?xml version="1.0" encoding="UTF-8"?><svg id="a" xmlns="http://www.w3.org/2000/svg" viewBox="0 0 425.2 425.2"><defs><style>.b{fill:#fff;}.c{fill:#ffdb05;}.d{fill:#72c4ba;}.e{fill:#22224b;}.f{fill:#404b5b;}</style></defs><path class="c" d="M168.91,354.01c.22,14.95,8.4,28.2,12.7,33.35-.2-13.75,.83-23.11,2.41-26.31,1.12,6.1,.25,12.89,9,32.84,8.19,18.67,19.55,26.12,19.55,26.12,0,0,9.34-5.38,19.6-25.71,8.21-16.24,7.25-25.97,7.04-33.22,4.75,11.85,3.71,20.66,3.68,26.52,6.98-6.49,13.48-24.85,13.52-34.67,.15-33.88-18.43-31.4-44.93-31.51-26.5-.09-43.07-2.32-42.56,32.59Z"/><g><g><path class="d" d="M252.02,221.74s65.91,34.95,65.63,110.07c0,0-4.18,8.26-10.73-1.69-6.57-9.93-12.26-37.2-54.36-37.34l-.54-71.04Z"/><path class="d" d="M174.04,221.42s-66.19,34.4-66.49,109.56c0,0,4.09,8.27,10.74-1.62,6.67-9.87,12.52-37.09,54.65-36.93l1.1-71.02Z"/></g><g><path class="b" d="M139.88,168.61c-.23,63.68,13.11,99.35,33.31,131.43l39.55,.18,39.52,.12c20.46-31.92,34.07-67.47,34.35-131.15,.12-30.75-4.95-59.72-12.61-85.11l-60.41-.25-60.41-.25c-7.86,25.3-13.17,54.25-13.3,85.02Zm32.99-18.75c.07-22.35,18.27-40.41,40.62-40.32,22.36,.1,40.37,18.28,40.3,40.66-.09,22.32-18.27,40.37-40.62,40.28-22.36-.1-40.39-18.27-40.29-40.62Z"/><path class="d" d="M173.8,300.14l38.91,.16,38.97,.15c1.02,.03,1.84,.83,1.84,1.86l-.03,8.66c0,1-.83,1.83-1.87,1.82l-38.96-.16-38.93-.15c-1.02,0-1.84-.84-1.85-1.86l.04-8.63c0-1.03,.84-1.85,1.87-1.85Z"/><path class="d" d="M172.87,149.85c-.1,22.35,17.94,40.53,40.29,40.62,22.35,.09,40.53-17.96,40.62-40.28,.08-22.38-17.93-40.56-40.3-40.66-22.35-.09-40.55,17.97-40.62,40.32Zm12.71,.05c.08-15.33,12.55-27.68,27.83-27.62,15.33,.05,27.69,12.52,27.62,27.83-.05,15.33-12.51,27.69-27.83,27.64-15.31-.08-27.67-12.54-27.62-27.84Z"/><path class="e" d="M213.42,122.28c15.33,.05,27.69,12.52,27.62,27.83-.05,15.33-12.51,27.69-27.83,27.64-15.31-.08-27.67-12.54-27.62-27.84,.08-15.33,12.55-27.68,27.83-27.62Z"/><path class="f" d="M224.92,130.53c5.59,3.97,4.91,9.97-1.51,13.4-6.42,3.44-16.15,3-21.74-.96-5.57-3.97-4.89-9.98,1.52-13.41,6.43-3.43,16.16-2.99,21.73,.97Z"/><path class="f" d="M219.73,164.69c3.07,2.18,2.7,5.48-.83,7.37-3.53,1.89-8.88,1.65-11.95-.53-3.07-2.19-2.69-5.49,.83-7.37,3.54-1.89,8.89-1.65,11.96,.53Z"/></g></g><g><path class="d" d="M213.89,5.19c13.2,.03,43.05,22.32,60.11,78.89l-60.41-.25-60.41-.25C170.68,27.16,200.7,5.15,213.89,5.19Z"/><path class="d" d="M208.95,242.13c.17-.06,.38-.09,.63-.1l.04-.02,1.85,.04h7.63l.05-.02c.22-.01,.44,.05,.64,.11,.38,.09,.79,.27,1.18,.49,2.3,.76,6.19,2.78,6.19,8.71l-6.15,74.61-.09,3.75-.04,2.82c.02,.87-.53,1.64-1.28,1.95-.32,.16-.68,.26-1.02,.26h-9.61c-1.16-.03-2.1-.95-2.1-2.09v-2.84l-.06-4.08-5.53-74.55c.03-7.57,6.34-8.72,7.67-9.04Z"/></g></svg>