<?xml version="1.0" encoding="UTF-8"?>
<svg id="a" xmlns="http://www.w3.org/2000/svg" viewBox="0 0 566.93 501">
    <defs>
        <style>.b{fill:#fff;}.c{fill:#e2f3fe;}.d{fill:#72bbe8;}.e{fill:#318ccc;}.f{fill:#cde9fb;}.g{fill:#a4daf7;}.h{fill:#d7eefd;}.i{fill:#2a55a2;}.j{fill:#81bfea;opacity:.2;}</style>
    </defs>
    <path class="j" d="M227.61,472.66c122.7,30.07,246.54-45.02,276.61-167.71,30.07-122.69-45.01-246.53-167.71-276.61C213.82-1.73,89.98,73.35,59.91,196.04c-30.07,122.7,45.01,246.54,167.71,276.62Z" />
    <g>
        <g>
            <path class="d" d="M237.62,431.82c100.15,24.54,201.23-36.74,225.77-136.88,16.87-68.84-6.82-138.14-55.82-182.69-22.27-20.25-49.77-35.41-81.07-43.08-100.14-24.54-201.23,36.74-225.77,136.89-13.99,57.06-.1,114.44,32.96,157.78,24.96,32.72,60.85,57.44,103.93,68Z" />
            <path class="e" d="M304.83,435.84c-13.2-10.29,43.36-70.59,76.83-98.87,41.26-34.87,14.81-60.44-40.96-38.66-55.78,21.77-17.26-51.94,16.45-122.74,33.71-70.8-90.09-38.44-123.1-26.09-33.02,12.36-15.17-15.98,11.68-42.12,22.4-21.8-44.65-11.45-101.13,16.77,44.59-48.41,113.46-71.74,181.9-54.96,100.15,24.55,161.43,125.63,136.88,225.77-18.99,77.49-83.81,131.7-158.57,140.9Z" />
            <path class="g" d="M124.77,291.73c-15.84-39.43-3.93-133.35,69.41-128.05,73.34,5.3,104.8,135.54,63.88,181.84-40.93,46.3-104.42,18.07-133.29-53.79Z" />
            <path class="h" d="M129.69,266.28c-3.26-11.37,2.73-37.03,22.87-33.45,20.15,3.56,25.13,40.51,12.48,52.15-12.65,11.64-29.42,2.02-35.36-18.7Z" />
            <path class="f" d="M273.66,63.95c-22.32,33.05-57.24,70.63-91.34,79.66-24.62,6.52-61.15,38.17-61.15,38.17,0,0,21.05-30.29,48.27-46.79,19.84-12.03,43.73-34.67,63.46-64.63,13.18-3.61,26.84-5.79,40.75-6.42Zm48.54,368.9c20.99-14.82,29.52-29.71,43.94-49.26,20.42-27.71,60.01-77.98,60.01-77.98,0,0-45.58,27.88-76.75,68.43-30.94,40.24-55.06,56.61-75.21,63.02,16.35,.71,32.46-.77,48-4.2Zm115.38-285.64c-25.65,59.81-58.66,114.03-90.52,136.28-47.69,33.29-73.16,81.57-73.16,81.57,0,0,50.5-50.33,78.69-65.22,25.43-13.44,79.41-66.46,104.17-115.21-4.98-13.17-11.42-25.72-19.19-37.42Zm-153.26,41.84c-29.33,43.8-68.93,92.15-106.46,100.67-29.63,6.73-49.25,14.22-67.66,33.72,4.27,10.02,9.41,19.66,15.34,28.79,17.94-16.17,43.24-35.68,68.13-43.63,45.85-14.67,94.29-95.49,110.51-128.32,16.22-32.82,40.38-46.43,40.38-46.43,0,0-30.6,10.93-60.25,55.2Z" />
            <path class="g" d="M307.37,418.53c12.52-9.94,26.4-24.17,42.03-44.49,31.17-40.55,76.75-68.43,76.75-68.43,0,0-39.59,50.28-60.01,77.98-14.4,19.53-22.93,34.4-43.87,49.21-.73,.16-1.46,.33-2.19,.49-.78,.16-1.55,.33-2.32,.47-1.48,.29-2.97,.55-4.46,.81-.68,.11-1.35,.24-2.04,.35-1.94,.31-3.89,.58-5.84,.83-.2,.02-.39,.06-.59,.08-3.51-2.75-2.08-9.03,2.54-17.3ZM273.65,63.97c-.51,.02-1.03,.05-1.54,.08-1.22,.07-2.44,.13-3.65,.22-.09,0-.18,.01-.27,.02-2.82,.21-5.62,.5-8.42,.84-.65,.08-1.31,.15-1.96,.24-1.13,.14-2.25,.31-3.37,.48-.75,.11-1.5,.23-2.24,.34-1.1,.18-2.19,.37-3.28,.57-.76,.14-1.53,.29-2.29,.43-1.08,.21-2.15,.42-3.23,.65-.76,.16-1.51,.33-2.25,.5-1.09,.25-2.17,.48-3.24,.75-.38,.09-.75,.19-1.13,.29-1.29,.32-2.58,.65-3.86,1-7.18,10.9-14.9,20.81-22.78,29.61,18.12-4.39,32.35-5.6,37.72-2.92,9.66-10.73,18.43-22.16,25.81-33.09Zm92.2,227.24c27.79-20.7,69.88-65.17,90.92-106.57-.61-1.61-1.24-3.22-1.9-4.81-.02-.06-.05-.12-.08-.2-.66-1.59-1.33-3.17-2.03-4.74h0c-2.84-6.41-6.03-12.64-9.57-18.66-.04-.07-.07-.13-.11-.19-.83-1.42-1.68-2.83-2.55-4.23-.06-.1-.12-.2-.19-.3-.9-1.43-1.81-2.86-2.75-4.27,0,0,0,0,0-.01-25.65,59.81-58.66,114.03-90.52,136.28-8.42,5.88-16.14,12.21-23.15,18.67,4.23,.09,9.76-1.12,16.8-3.87,9.24-3.62,17.68-5.91,25.14-7.09Z" />
            <path class="c" d="M268.93,239.1c-21.49,30.58-48.8,61.05-75.25,69.51-15.42,4.92-31,14.29-44.89,24.55-6.38-7.8-12.25-16.79-17.4-26.87,12.97-7.72,27.7-12.3,46.46-16.56,28.63-6.5,58.46-36.19,84.02-69.34,2.72,6.02,5.08,12.3,7.04,18.71Z" />
            <path class="f" d="M96.29,231.91c14.38-16.26,38.18-40.53,58.6-48.68-28.32,31.54-48.17,66.92-58.47,87.5-1.39-12.73-1.46-25.73-.13-38.83Zm163.11-85.77c-25.15,47-98.22,78.16-98.22,78.16,0,0,56.24,9.7,97.11-40.27,32.29-39.47,75.42-77.97,123.47-91.44-12.86-8.12-26.88-14.76-41.9-19.63-59.59,27.01-60.05,35.03-80.47,73.17Zm109.64,269.54c12.1-6.37,23.49-14.06,33.94-22.93,5.61-13.77,14.71-32.85,28.79-54.42-16.78,14.71-46.15,54.27-62.72,77.35Zm-181.68-4.25c17.91-13.97,28.76-31.79,46.33-60.3,22.63-36.71,59.46-59.03,59.46-59.03,0,0-16.09-6.67-56.06,28.51-34.85,30.67-56.88,38.59-95.72,52.61,13.03,14.96,28.5,27.92,46,38.21ZM429.05,135.38c-4.64-5.92-9.64-11.59-14.98-16.94-33.95,44.31-30.12,93.94-85.36,156.48,31.07-27.63,71.4-93.03,100.34-139.54Z" />
            <path class="c" d="M132.47,196.91c7.52-5.86,15.18-10.78,22.42-13.67-12.96,14.44-24.15,29.68-33.47,43.95,2.23-10.67,5.85-21.07,11.05-30.28Zm99.56-17.44c-30.97,27.83-70.85,44.84-70.85,44.84,0,0,46.95,8.09,86.23-28.62-4.62-6.12-9.76-11.59-15.38-16.22Zm-8.03,187.3c3.04-4.84,6.24-10.02,9.7-15.63,12.25-19.87,28.65-35.51,41.12-45.69,.52-3.52,.89-7.13,1.11-10.81-8.97,3.52-21.71,10.9-38.84,25.98-22.12,19.47-39.08,29.77-58.45,38.29,14.8,8.29,30.47,11.22,45.37,7.87Z" />
            <g>
                <path class="i" d="M431.76,338.33c-14.06,21.54-23.16,40.61-28.77,54.38-.68,.57-1.35,1.15-2.04,1.71-.56,.47-1.12,.93-1.69,1.4-1.52,1.22-3.04,2.41-4.59,3.58-.56,.42-1.13,.83-1.7,1.24-1.11,.82-2.23,1.63-3.36,2.43-.64,.46-1.29,.91-1.94,1.35-1.21,.83-2.44,1.65-3.66,2.44-.5,.33-.99,.66-1.5,.98-1.66,1.06-3.34,2.09-5.04,3.1-.58,.35-1.18,.69-1.77,1.03-1.23,.71-2.46,1.42-3.7,2.1-.65,.35-1.3,.71-1.94,1.06-.33,.17-.66,.33-.98,.51,16.58-23.09,45.92-62.6,62.69-77.31Z" />
                <path class="g" d="M309.83,131.98c-15.93,1.46-33.02,4.99-47.58,8.8,17.75-33.61,20.93-42.12,77.62-67.82,1.86,.61,3.71,1.24,5.54,1.9,.08,.03,.16,.05,.23,.08,1.65,.59,3.28,1.21,4.9,1.85,.33,.12,.65,.25,.98,.38,1.43,.57,2.85,1.16,4.26,1.76,.3,.13,.61,.26,.92,.4,5.11,2.22,10.08,4.65,14.91,7.29,.26,.14,.52,.28,.77,.43,1.37,.76,2.72,1.52,4.06,2.3,.26,.15,.51,.31,.77,.45,1.54,.91,3.06,1.83,4.55,2.78t.01,0c-25.69,7.2-49.97,21.55-71.94,39.38Z" />
                <path class="g" d="M328.71,274.91c55.24-62.53,51.41-112.17,85.36-156.48,1.23,1.24,2.44,2.49,3.64,3.76,.33,.35,.66,.7,.98,1.06,.87,.93,1.73,1.88,2.58,2.83,.36,.41,.72,.81,1.08,1.22,.86,.98,1.7,1.96,2.54,2.95,.29,.34,.58,.68,.87,1.04,1.12,1.34,2.22,2.7,3.3,4.07h.01c-28.94,46.52-69.27,111.92-100.34,139.55Z" />
            </g>
            <g>
                <path class="i" d="M214.96,424.73c19.56-6.01,48.59-12.84,93.35-47.43-22.09,33.31-53.28,49.87-66.08,55.59-1.54-.34-3.08-.69-4.62-1.07-7.8-1.91-15.35-4.29-22.66-7.1Z" />
                <path class="i" d="M463.6,294.01c-14.37,14.62-31.86,30.52-42.56,33.56,14.65-11.7,36.75-51.94,47.69-72.94-.31,13.02-1.97,26.2-5.13,39.38Z" />
            </g>
            <path class="b" d="M352.72,337.25c5.48-7.82,16.03-6.98,9.96,1.08-6.06,8.06-17.3,9.4-9.96-1.08Z" />
            <path class="b" d="M292.47,408.82c5.48-7.83,16.03-6.98,9.96,1.07-6.07,8.06-17.3,9.39-9.96-1.07Z" />
            <path class="b" d="M339.31,158.33c3.7-5.28,10.81-4.71,6.72,.73-4.09,5.43-11.67,6.33-6.72-.73Z" />
            <path class="b" d="M285.54,312.81c3.7-5.27,10.81-4.71,6.72,.73-4.09,5.43-11.67,6.33-6.72-.73Z" />
            <path class="b" d="M325.85,181.37c2.41-3.43,7.02-3.06,4.37,.47-2.66,3.53-7.58,4.11-4.37-.47Z" />
            <path class="b" d="M322.74,166.93c2.4-3.43,7.02-3.06,4.36,.47-2.65,3.53-7.57,4.11-4.36-.47Z" />
            <path class="b" d="M392.88,360.87c2.4-3.43,7.02-3.05,4.36,.47-2.66,3.53-7.57,4.11-4.36-.47Z" />
            <path class="b" d="M226.22,380.9c2.4-3.42,7.03-3.06,4.37,.47-2.66,3.54-7.58,4.12-4.37-.47Z" />
            <path class="b" d="M239.04,376.78c2.4-3.43,7.02-3.06,4.37,.47-2.66,3.53-7.58,4.11-4.37-.47Z" />
            <path class="b" d="M176.32,237.82c2.4-3.43,7.02-3.06,4.36,.47-2.66,3.53-7.58,4.11-4.36-.47Z" />
            <path class="b" d="M188.61,272.26c5.98-6.05,15.11-3.72,8.58,2.44-6.54,6.17-16.59,5.65-8.58-2.44Z" />
            <path class="b" d="M172.59,326.49c5.98-6.04,15.11-3.72,8.59,2.44-6.54,6.17-16.6,5.66-8.59-2.44Z" />
            <path class="b" d="M239.78,215.37c4.51-4.55,11.39-2.8,6.48,1.84-4.93,4.65-12.52,4.26-6.48-1.84Z" />
            <path class="b" d="M131.45,292.47c2.97-3,7.51-1.85,4.27,1.22-3.25,3.06-8.25,2.81-4.27-1.22Z" />
            <path class="b" d="M200.57,333.04c2.97-3,7.51-1.85,4.27,1.21-3.25,3.07-8.25,2.81-4.27-1.21Z" />
            <path class="b" d="M189.91,319.07c2.97-3,7.51-1.85,4.27,1.21-3.25,3.07-8.25,2.81-4.27-1.21Z" />
            <path class="b" d="M153.47,208.44c2.97-3,7.51-1.86,4.27,1.21-3.25,3.06-8.25,2.81-4.27-1.21Z" />
            <path class="b" d="M283.97,237.7c2.97-3,7.51-1.85,4.26,1.21-3.25,3.06-8.25,2.81-4.26-1.21Z" />
            <path class="b" d="M305.45,391.09c2.97-3,7.51-1.85,4.27,1.21-3.25,3.06-8.25,2.81-4.27-1.21Z" />
        </g>
        <path class="b" d="M45.1,457.39c-7.45-1.98-13.88-5.47-18.6-10.09-1.25-1.21-2.57-2.74-3.51-4.04l-.38-.5c-.09-.12-.23-.33-.33-.49h0l-1.21-2.03c-.31-.51-.62-1.01-.96-1.66-1.72-3.69-2.73-6.82-3.17-9.76-1.04-5.81-.88-12.06,.5-19.1,1.19-5.88,2.94-11.54,5.14-16.72,.45-1.19,.98-2.41,1.69-3.94l1.69-3.69s.04-.08,.06-.12c.43-.83,.84-1.65,1.26-2.48,.77-1.54,1.57-3.12,2.42-4.61,2.5-4.56,5.14-8.99,7.84-13.14,2-3.17,4.11-6.18,6.14-9.09,.64-.91,1.27-1.81,1.94-2.78l4.13-5.56c1.25-1.68,2.54-3.41,3.84-5.02l1.68-2.12c2.05-2.59,4-5.04,5.98-7.37l.73-.89c2.24-2.68,4.35-5.21,6.45-7.55,4.07-4.72,7.9-8.86,11.29-12.5l2.28-2.42c3.36-3.5,6.25-6.5,8.67-8.96l8.12-8.1c.35-.35,.78-.58,1.23-.69,.43,1.89,.89,3.77,1.38,5.64l-6.66,7.07c-2.32,2.5-5.1,5.58-8.33,9.17l-.86,.95c-.9,1.04-1.84,2.12-2.82,3.24-2.8,3.22-5.98,6.85-9.3,10.88-1.98,2.31-3.96,4.8-6.06,7.44l-.84,1.05c-1.87,2.28-3.7,4.71-5.63,7.29l-1.69,2.22c-1.23,1.58-2.39,3.24-3.71,5.1l-3.8,5.37c-.62,.95-1.26,1.9-1.9,2.86-1.88,2.83-3.84,5.76-5.7,8.86-2.54,4.11-4.91,8.3-7.28,12.87-.75,1.38-1.43,2.83-2.15,4.34-.4,.83-.79,1.66-1.2,2.5l-1.55,3.6c-.62,1.4-1.06,2.49-1.46,3.62-1.97,5.01-3.47,10.21-4.42,15.29-1.08,5.95-1.16,11.12-.24,15.89,.34,2.12,1.11,4.36,2.48,7.24,.18,.32,.38,.64,.57,.95,.15,.24,.3,.48,.43,.7l.65,1.06c-.05-.09-.08-.11-.14-.18,.03,.03,.12,.16,.15,.18l.11,.18c-.04-.08-.08-.13-.1-.17l.38,.48c.82,1.1,1.55,1.91,2.59,2.92,3.63,3.45,8.68,6.07,14.62,7.55,5.26,1.36,11.24,2,18.25,1.96,5.89-.05,12.26-.61,19.46-1.7,12.18-1.91,25.3-5.17,40.12-9.95,3.46-1.12,6.87-2.27,10.14-3.44l2.5-.88,17.92-6.9c.62-.24,1.24-.48,1.86-.71,1.08-.41,2.17-.83,3.23-1.29l17.61-7.68c2.6-1.13,5.3-2.3,7.91-3.62l20.49-9.9,20.51-10.78c2.62-1.33,5.25-2.82,7.79-4.26l12.51-7.05c1.21-.7,2.43-1.37,3.65-2.05,2.15-1.21,4.38-2.44,6.51-3.76l13.7-8.27c5.45-3.28,11.08-6.68,16.5-10.25,2.35-1.53,4.71-3.04,7.07-4.55,4.24-2.72,8.62-5.53,12.86-8.34l19.69-13.44c.64-.44,1.29-.88,1.93-1.32,.99-.67,1.98-1.34,2.94-2.03l14.58-10.38,9.57-7.07c2.86-2.09,6.21-4.56,9.47-7.09l9.42-7.2c2.02-1.56,4.02-3.15,6.01-4.74,1.09-.87,2.17-1.73,3.27-2.6,4.62-3.6,9.22-7.39,13.66-11.04,1.53-1.26,3.06-2.52,4.56-3.75,10.52-8.86,22.89-19.4,34.94-30.56,4.14-3.73,8.2-7.62,12.12-11.38,1.49-1.43,2.97-2.85,4.41-4.21l10.79-10.75,5.03-5.2c9.61-9.88,19.09-20.53,29-32.57,4.36-5.22,8.46-10.69,12.42-15.98l6.42-9.16c.57-.8,1.14-1.68,1.74-2.62,.33-.54,.67-1.07,.99-1.54l.79-1.22c.68-1.05,1.32-2.03,1.93-3.09,3.33-5.37,6.49-11.19,9.36-17.3,2.85-6.03,5-11.95,6.39-17.57l.03-.13c1.54-6.3,2.04-12.03,1.47-17.01-.7-5.46-2.8-10.35-6.1-14.12-3.08-3.5-7.47-6.3-12.73-8.1-5.31-1.91-10.98-2.6-15.27-2.99-11.61-.84-22.64,.56-29.92,1.68-8.4,1.35-16.98,3.22-26.21,5.72-7.1,1.92-14.27,4.1-21.87,6.66l-18.87,6.79c-.78,.28-1.53,.55-2.23,.82l-18.43,7.45c-1.53-1.08-3.08-2.14-4.65-3.17,.27-.5,.69-.93,1.25-1.17l19.55-8.63c.76-.32,1.55-.64,2.35-.95l5.11-2.02c4.05-1.61,8.64-3.42,13.68-5.33,7.71-2.8,14.96-5.19,22.15-7.32,9.42-2.79,18.2-4.92,26.85-6.51,8.3-1.48,19.41-3.1,31.8-2.49,2.93,.2,5.8,.43,8.66,.96,3.23,.54,6.15,1.26,8.88,2.19,6.82,2.26,12.43,5.77,16.67,10.46l.25,.28c.22,.24,.44,.48,.68,.78l1.44,1.86c.05,.07,.11,.13,.15,.22l1.98,3.21c.29,.54,.54,1.09,.79,1.65,.11,.23,.21,.47,.31,.7,1.6,3.36,2.36,6.98,2.91,10.19,.8,6.24,.33,12.96-1.43,20.55l-.22,.94c-1.46,5.95-3.65,12.18-6.52,18.5-3,6.59-6.17,12.64-9.64,18.42-.66,1.16-1.34,2.26-2.01,3.32l-.77,1.24c-.33,.51-.64,1.01-.95,1.52-.59,.96-1.21,1.95-1.91,2.96l-5.98,8.83-.39,.53c-4.02,5.53-8.17,11.24-12.62,16.73-8.78,11.07-18.64,22.35-29.3,33.5l-3.91,4.15-12.05,12.19c-1.46,1.41-2.93,2.84-4.39,4.26-3.97,3.87-8.09,7.86-12.26,11.68-9.86,9.29-20.72,18.89-35.23,31.12-1.52,1.25-3.03,2.5-4.54,3.76-4.51,3.73-9.17,7.58-13.87,11.27-1.1,.88-2.21,1.75-3.3,2.63-2.01,1.6-4.02,3.21-6.06,4.79l-9.46,7.27c-3.31,2.57-6.73,5.11-9.62,7.25l-9.67,7.17-14.58,10.44c-1.17,.85-2.32,1.63-3.48,2.41l-21.41,14.55c-4.34,2.87-8.79,5.71-13.09,8.45-2.36,1.5-4.73,3.01-7.06,4.51-5.54,3.64-11.29,7.08-16.84,10.4l-13.74,8.24c-2.22,1.37-4.52,2.64-6.74,3.87-1.21,.67-2.42,1.34-3.64,2.04l-10.3,5.77c-.86,.48-1.72,.96-2.58,1.45-2.54,1.43-5.16,2.91-7.81,4.22l-20.79,10.73-20.78,9.85c-2.74,1.35-5.57,2.56-8.3,3.72l-17.9,7.64c-1.15,.5-2.32,.93-3.48,1.36-.6,.23-1.21,.45-1.83,.69l-18.22,6.86-2.6,.88c-3.36,1.15-6.89,2.28-10.48,3.38-15.4,4.74-29.09,7.92-41.86,9.74-7.7,1.05-14.55,1.55-20.92,1.52-7.87-.07-14.64-.9-20.69-2.55Z" />
    </g>
</svg>