<?xml version="1.0" encoding="UTF-8"?>
<svg id="a" xmlns="http://www.w3.org/2000/svg" viewBox="0 0 595.28 743.89">
    <defs>
        <style>.b{fill:#ebebeb;}.c{fill:#ec736b;}.d{fill:#e63d16;}.e{fill:#ef7a61;}.f{fill:#fff;}.g{fill:#f2b58c;}.h{fill:#e5e5e4;}.i{fill:#fbceae;}.j{fill:#72c4ba;}.k{fill:#7d4730;}.l{fill:#acaaaa;}.m{fill:#d98763;}.n{fill:#1b2128;}.o{fill:#5c2926;}</style>
    </defs>
    <g>
        <path class="f" d="M395.65,361.18s42.16,44.98,91.88,47.73c3.28,18.4,1.41,64.02,1.41,64.02,0,0-75.53-6.73-125.17-52.92,5-28.59,31.88-58.83,31.88-58.83Z" />
        <path class="d" d="M481.8,411.56s26.26-29.31,39.02-22.83c12,6.07,1.33,25.23,1.33,25.23,0,0,41.96-1.07,47.18,10.43,5.23,11.47-14.58,13.53-14.58,13.53,0,0,19.59,8.62,19.25,18.03-.33,9.39-11.36,12.56-20.03,12.82,11.28,5.47,8.87,11.63,3.57,17.01-9.18,9.19-48.17,9.7-76.07-14.08-8.77-7.08-3.95-50.32,.33-60.13Z" />
        <path class="d" d="M454.41,399.06s-20.75,45.99-19.68,62.59c-12.06,4.77-18.23-6.59-18.23-6.59,0,0,.29-30.27,21.03-61.87,7.72-2.8,16.88,5.87,16.88,5.87Z" />
    </g>
    <g>
        <path class="f" d="M219.73,334.85s-51.94,33.21-100.81,23.65c-7.71,16.99-17.11,61.67-17.11,61.67,0,0,74.87,12.1,134.33-20.51,2.2-28.92-16.41-64.81-16.41-64.81Z" />
        <path class="d" d="M123.83,362.44s-18.2-34.83-32.19-31.7c-13.12,2.95-7.5,24.12-7.5,24.12,0,0-40.39-11.36-48.28-1.51-7.89,9.82,10.78,16.72,10.78,16.72,0,0-21.11,3.52-23.09,12.7-2,9.19,7.92,14.95,16.23,17.32-12.23,2.57-11.46,9.12-7.61,15.64,6.61,11.17,44.29,21.27,77.16,5.08,10.27-4.69,16.27-47.83,14.51-58.38Z" />
        <path class="d" d="M153.44,357.08s8.83,49.69,3.72,65.54c10.47,7.55,19.29-1.94,19.29-1.94,0,0,7.15-29.38-5.18-65.11-6.8-4.61-17.83,1.51-17.83,1.51Z" />
    </g>
    <g>
        <path class="f" d="M220.85,330.21s-76.51,171-52.97,298.7c26.24,15.26,62.2,25.39,62.2,25.39,0,0,22.38-50.76,36.35-100.06,7,.97,17.93,3.01,24.85,1.61,1.6,35.01,1.6,91.73,10.52,111,27.66,5.15,69.11-5.86,69.11-5.86,0,0,55.79-148.52,19.66-296.62-45.89-12.83-169.71-34.17-169.71-34.17Z" />
        <path class="j" d="M401.75,471.56s-30.72,42.08-86.84,55.68c-6.42,7.71-9.25,14.44-9.25,14.44,0,0,47.07,6.06,94.7-46.59,7.29-11.31,1.38-23.54,1.38-23.54Z" />
        <path class="d" d="M402.68,474.04c-.49-1.52-.93-2.48-.93-2.48,0,0-8.36,11.41-24.28,24.27,11.22-7.88,19.67-15.91,25.21-21.79Z" />
        <path class="h" d="M376.49,462.84c-4.4,31.65-45.05,52.11-90.79,45.75-45.74-6.38-79.24-37.17-74.91-68.78,4.41-31.63,45.07-52.1,90.81-45.72,45.76,6.36,79.28,37.14,74.88,68.75Z" />
        <path class="d" d="M370.15,461.96c-4.08,29.21-41.62,48.11-83.85,42.21-42.23-5.85-73.18-34.29-69.12-63.5,4.05-29.18,41.61-48.07,83.83-42.2,42.24,5.86,73.19,34.31,69.14,63.49Z" />
        <path class="j" d="M182.33,441.04s18.07,48.83,68.35,77.27c4.05,9.17,4.93,16.41,4.93,16.41,0,0-47.09-10.38-78.4-70.66-3.89-12.89,5.11-23.02,5.11-23.02Z" />
        <path class="d" d="M182.93,442.56c-.39-.97-.59-1.52-.59-1.52,0,0-.08,.11-.22,.22,.27,.42,.56,.87,.81,1.3Z" />
        <path class="f" d="M259.72,432.15c-1.25,8.85-9.78,14.97-19.09,13.67-9.33-1.29-15.9-9.53-14.66-18.4,1.23-8.86,9.78-14.99,19.09-13.67,9.33,1.29,15.87,9.5,14.66,18.4Z" />
        <path class="f" d="M364.95,446.79c-1.2,8.85-9.38,15.05-18.21,13.81-8.8-1.22-14.93-9.41-13.73-18.28,1.25-8.85,9.38-15.04,18.21-13.83,8.84,1.25,14.96,9.43,13.73,18.3Z" />
        <path class="f" d="M292.44,419.34c-1.09,8.02-8.49,13.64-16.47,12.52-7.98-1.11-13.54-8.51-12.41-16.52,1.11-8.05,8.48-13.66,16.46-12.53,7.97,1.1,13.57,8.5,12.43,16.53Z" />
        <path class="f" d="M331.53,424.8c-1.13,7.99-8.51,13.6-16.49,12.49-7.99-1.09-13.55-8.51-12.44-16.53,1.12-8.04,8.51-13.62,16.48-12.51,8.01,1.1,13.59,8.5,12.45,16.55Z" />
        <path class="b" d="M306.99,492.37c-.48,3.52-3.72,5.96-7.25,5.5l-23.88-3.35c-3.52-.48-5.94-3.74-5.47-7.24l6.12-44.04c.5-3.48,3.74-5.95,7.23-5.48l23.9,3.34c3.5,.49,5.97,3.73,5.48,7.23l-6.13,44.04Z" />
        <path class="j" d="M191.36,412.42l-5.25,18.96s-21.94,9.45-6.34,14.61c13.96,4.66,40.01-8.59,55.97-21.71,10.31-7.1,22.49,5.99,8.62,17.79-18.09,12.65-39.86,26.73-65.18,24.15-25.28-2.55-34.73-19.72-21.84-35.82,11.98-14.83,34.01-17.98,34.01-17.98Z" />
        <path class="j" d="M402.28,441.74l-.1,19.7s18.99,15.13,2.17,15.81c-15,.6-36.98-19.32-49.03-36.31-8.17-9.7-23.77-.47-13.38,14.71,14.31,17.18,31.87,36.71,57.45,41.21,25.58,4.52,39.59-9.41,31.33-28.42-7.67-17.6-28.44-26.69-28.44-26.69Z" />
        <path class="l" d="M399.32,365.73c-2.65,18.87-46.16,28.4-97.17,21.34-51-7.09-90.23-28.16-87.6-47.03,2.63-18.92,46.13-28.48,97.12-21.42,51.03,7.12,90.25,28.21,87.65,47.11Z" />
        <g>
            <path class="d" d="M165.09,628.53s-37.95,43.94-9.75,66.32c28.18,22.43,82.31-8.46,82.74-52.52,3.33-13.75-55.94-40.68-72.98-13.8Z" />
            <path class="f" d="M203.91,678.81c-1.14-.16-2.18-.76-2.91-1.76-19.54-28.11-44.53-17.5-45.55-17.01-2.18,.92-4.64,0-5.61-2.14-.96-2.1-.05-4.64,2.1-5.58,.31-.14,32.35-14.15,56.03,19.87,1.33,1.92,.84,4.55-1.07,5.9-.9,.62-1.98,.85-3,.71Z" />
            <path class="f" d="M213.22,663.02c-1.12-.15-2.19-.74-2.9-1.76-19.55-28.11-44.53-17.5-45.59-17.03-2.12,.97-4.63,.02-5.58-2.12-.93-2.1-.01-4.61,2.11-5.57,.32-.15,32.34-14.12,56.03,19.9,1.33,1.92,.85,4.55-1.08,5.87-.9,.64-1.97,.85-2.99,.7Z" />
        </g>
        <g>
            <path class="d" d="M370.24,657.06s24.5,52.59-8.72,66.47c-33.25,13.89-76.89-30.61-65.26-73.11,.53-14.13,64.91-23.9,73.98,6.64Z" />
            <path class="f" d="M319.16,694.85c1.12,.12,2.32-.14,3.28-.93,26.49-21.69,47.61-4.65,48.5-3.9,1.77,1.47,4.45,1.24,5.93-.54,1.5-1.82,1.3-4.43-.49-5.97-.26-.22-27.25-22.38-59.31,3.85-1.81,1.48-2.07,4.16-.59,5.96,.71,.88,1.68,1.37,2.7,1.52Z" />
            <path class="f" d="M314.51,677.15c1.12,.13,2.33-.16,3.27-.94,26.48-21.71,47.62-4.66,48.48-3.93,1.82,1.49,4.5,1.28,5.95-.51,1.52-1.79,1.29-4.48-.49-5.92-.27-.25-27.23-22.43-59.32,3.82-1.76,1.52-2.07,4.12-.57,5.93,.65,.87,1.66,1.39,2.69,1.56Z" />
        </g>
        <path class="d" d="M251.16,519.51s4.6,28.27,15.79,34.68c9.36,6.17,23.55,3.58,23.55,3.58,0,0,16.24-12.38,24.52-30.13,.77-10.29-64.6-16.04-63.86-8.13Z" />
    </g>
    <g>
        <path class="f" d="M192.2,185.24c-4.88,35.36-30.85,60.95-57.95,57.19-27.1-3.79-45.11-35.48-40.17-70.85,4.93-35.34,30.86-60.95,57.96-57.19,27.13,3.79,45.11,35.51,40.16,70.85Z" />
        <path class="d" d="M206.23,188.66c-6.42,46.14-33.3,80.58-60,76.85-26.71-3.69-43.15-44.14-36.72-90.32,6.44-46.19,33.3-80.58,59.98-76.89,26.71,3.69,43.18,44.2,36.74,90.36Z" />
        <path class="f" d="M458.22,222.26c-4.92,35.32,13.06,67.06,40.17,70.83,27.11,3.79,53.06-21.85,57.95-57.18,4.94-35.37-13.05-67.1-40.15-70.87-27.09-3.74-53.07,21.86-57.97,57.23Z" />
        <path class="d" d="M443.79,221.7c-6.44,46.14,10.04,86.62,36.73,90.33,26.69,3.69,53.57-30.71,60.01-76.9,6.39-46.16-10.03-86.62-36.77-90.31-26.68-3.74-53.55,30.71-59.96,76.88Z" />
        <g>
            <path class="i" d="M453.98,250.46c-19.19,77.03-92.07,113.34-166.25,94.86-74.17-18.47-121.51-84.72-102.32-161.76,19.19-77.03,94.17-121.72,168.34-103.24,74.18,18.47,119.43,93.13,100.23,170.15Z" />
            <g>
                <g>
                    <path class="i" d="M448.48,249.71s5.7-15.2,25.26-13.22c20.62,2.1,22.8,30.25,8.54,43.62-14.26,13.33-36.7,8.67-40.94-5.2l7.15-25.2Z" />
                    <path class="m" d="M476.16,244.23c-12.62-5.08-28.06,15.74-12.82,31.46-4.08-17.87,3.96-22.01,11.72-12.25,1.02-5.34-1.55-9.38-9.56-10.46,2.09-6.9,10.66-8.75,10.66-8.75Z" />
                </g>
                <g>
                    <path class="i" d="M189.78,185.32s2.08-16.1-16.11-23.52c-19.2-7.82-34.32,16.02-28.01,34.51,6.34,18.47,28.35,24.87,38.59,14.62l5.53-25.6Z" />
                    <path class="m" d="M167.9,167.5c13.52,1.43,17.39,27.06-3.44,33.8,11.98-13.86,6.82-21.29-4.61-16.32,1.61-5.19,5.76-7.55,13.35-4.75,1.39-7.08-5.3-12.73-5.3-12.73Z" />
                </g>
            </g>
            <path class="n" d="M228.2,105.38c10.76-25.86,71.19-54.97,142.65-28.67,48.84,17.97,77.52,59.39,80.85,83.6,25.05,1.87,6.68,78.47,6.68,78.47-10.71,2.39-21.26-19.01-5.47-30.24-6.4-7.03-11.67-18.6-10.98-29.77-11.51,2.11-28.63-2.71-55.78-41.92,5.25,38.93-84.54,48.21-104.33-21.99-12.16,22.08-39.61,23.9-51.13,9.4-4.01,11.44-14.99,20.22-24.67,23.68,8.68,17.33-10.67,31.29-19.01,24.15,0,0,18.85-73,41.2-66.7Z" />
            <path class="g" d="M200.56,283.83c-5.74-9.45-10.22-19.65-13.27-30.44,6.51-.09,8.46,2.85,6.19,7.58,4.44-.14,9.16,4.81,3.24,8.89,9.18,.7,9.21,10.6,4.52,8.61,1.29,1.64-.62,3.92-.68,5.36Z" />
            <path class="e" d="M312.59,214.19c-.74,8.38,17.77,23,7.55,30.8-6.34,4.84-16.91,.5-13.8-11.7,1.8-7.07,6.25-19.1,6.25-19.1Z" />
            <g>
                <path class="e" d="M258.84,247.67c-2.02,7.91-15.63,11.26-30.4,7.49-14.77-3.77-25.11-13.23-23.09-21.15,2.02-7.91,15.63-11.27,30.4-7.5,14.77,3.77,25.11,13.24,23.09,21.15Z" />
                <path class="e" d="M412.91,287.19c-2.02,7.91-15.63,11.27-30.41,7.5-14.77-3.77-25.11-13.24-23.09-21.15,2.02-7.91,15.63-11.26,30.4-7.5,14.78,3.77,25.11,13.23,23.1,21.15Z" />
            </g>
            <g>
                <path class="o" d="M270.91,252.95c11.92-6.34,13.43,7.38,36.72,11.6,23.78,4.31,29.6-8.66,39.09,3.98,7.75,10.31-9.25,57.55-48.11,49.9-39.15-7.74-39.05-59.45-27.7-65.48Z" />
                <path class="c" d="M327.32,313.16c-7.6,4.98-17.2,7.53-28.71,5.26-10.79-2.13-18.59-7.61-24-14.54,7.09-1.44,16.28-1.62,27.73,.46,10.91,1.99,19.09,5.19,24.98,8.82Z" />
                <path class="f" d="M275.12,251.44c8.48-1.39,12.27,9.45,32.52,13.11,20.5,3.71,27.65-5.4,35.31,.11-2.59,13.18-21.64,19.74-38.07,16.5-16.28-3.22-32.32-16.67-29.76-29.72Z" />
            </g>
            <g>
                <g>
                    <path class="f" d="M372.06,218.95c-8.23,11.69-5.96,27.47,5.07,35.25,11.04,7.78,26.67,4.61,34.91-7.09,8.24-11.71,5.96-27.48-5.07-35.27-11.05-7.77-26.67-4.6-34.91,7.1Z" />
                    <path class="n" d="M380.45,224.11c-5.07,7.21-3.67,16.95,3.13,21.75,6.81,4.8,16.45,2.84,21.53-4.37,5.08-7.22,3.67-16.95-3.13-21.75-6.81-4.79-16.45-2.84-21.53,4.37Z" />
                    <path class="f" d="M396.13,229.18c-.59,2.52,.86,4.99,3.23,5.55,2.36,.54,4.75-1.03,5.35-3.54,.58-2.5-.85-4.98-3.21-5.55-2.37-.54-4.78,1.04-5.37,3.55Z" />
                    <path class="f" d="M380.9,236.63c-.37,1.56,.53,3.09,2,3.44,1.46,.34,2.95-.64,3.32-2.2,.34-1.55-.53-3.09-2-3.43-1.47-.34-2.95,.64-3.32,2.19Z" />
                </g>
                <path class="k" d="M420.19,228.82s-13.39-26.82-43.39-17.69c32.48-21.17,43.39,17.69,43.39,17.69Z" />
            </g>
            <g>
                <g>
                    <path class="f" d="M231.12,185.26c-6.75,12.61-2.57,28,9.33,34.38,11.9,6.37,27.03,1.32,33.78-11.3,6.75-12.63,2.57-28-9.33-34.38-11.92-6.36-27.04-1.31-33.79,11.3Z" />
                    <path class="n" d="M240.11,189.45c-4.16,7.78-1.58,17.26,5.75,21.2,7.35,3.93,16.67,.81,20.84-6.97,4.16-7.78,1.59-17.27-5.76-21.2-7.35-3.93-16.67-.81-20.84,6.97Z" />
                    <path class="f" d="M256.29,192.57c-.28,2.57,1.46,4.85,3.87,5.11,2.41,.26,4.59-1.6,4.88-4.16,.27-2.56-1.46-4.84-3.87-5.12-2.42-.24-4.62,1.62-4.89,4.18Z" />
                    <path class="f" d="M242.09,201.81c-.18,1.6,.9,3,2.41,3.18,1.49,.16,2.86-1,3.02-2.59,.15-1.58-.9-3-2.41-3.16-1.49-.16-2.85,1-3.02,2.58Z" />
                </g>
                <path class="k" d="M280.09,189.18s-16.56-24.98-45.22-12.27c29.66-24.98,45.22,12.27,45.22,12.27Z" />
            </g>
            <path class="n" d="M408.16,179.47c-11.88-8.78-20.17,4.78-11.36,8.15,9.45,3.59,16.06,10.04,17.58,9.57,3.37-1.03,.47-12.79-6.22-17.73Z" />
            <path class="n" d="M262.18,145.45c14.77-.05,13.43,15.79,4.34,13.3-9.75-2.7-18.88-1.41-19.84-2.69-2.12-2.82,7.19-10.59,15.5-10.61Z" />
        </g>
        <path class="f" d="M302.7,376.06c108.8,15.12,208.02-51.9,221.66-149.7,13.58-97.82-63.59-189.36-172.41-204.48-108.79-15.15-208,51.89-221.65,149.67-13.56,97.82,63.59,189.38,172.4,204.51Zm-115.09-181.32c8.93-64.12,76.85-107.69,151.67-97.29,74.81,10.39,128.28,70.83,119.37,135-8.98,64.14-76.85,107.71-151.68,97.28-74.87-10.39-128.28-70.83-119.37-135Z" />
        <path class="d" d="M341.01,84.96c-82.89-11.55-158.11,36.72-167.99,107.78-9.88,71.05,49.3,137.98,132.2,149.49,82.92,11.55,158.08-36.71,167.99-107.78,9.89-71-49.31-138-132.21-149.49Zm-34.07,244.83c-71.94-9.98-123.32-68.13-114.75-129.8,8.59-61.66,73.88-103.54,145.82-93.56,71.94,10.03,123.35,68.14,114.78,129.85-8.6,61.61-73.87,103.55-145.86,93.51Z" />
    </g>
</svg>